<?xml version="1.0" standalone="no"?>
<!DOCTYPE svg PUBLIC "-//W3C//DTD SVG 20010904//EN"
 "http://www.w3.org/TR/2001/REC-SVG-20010904/DTD/svg10.dtd">
<svg version="1.0" xmlns="http://www.w3.org/2000/svg"
 width="300.000000pt" height="300.000000pt" viewBox="0 0 300.000000 300.000000"
 preserveAspectRatio="xMidYMid meet">
<metadata>
Created by potrace 1.10, written by Peter Selinger 2001-2011
</metadata>
<g transform="translate(0.000000,300.000000) scale(0.100000,-0.100000)"
fill="#000000" stroke="none">
<path d="M640 2867 c-50 -41 -85 -123 -77 -181 5 -34 2 -47 -12 -60 -10 -9
-21 -13 -24 -9 -4 3 -7 1 -7 -5 0 -7 -4 -12 -10 -12 -5 0 -10 15 -10 33 0 17
-9 43 -19 56 -25 33 -50 17 -84 -53 -28 -57 -34 -107 -17 -151 8 -21 6 -31 -9
-51 l-19 -24 -31 50 c-17 27 -33 50 -35 50 -3 0 5 -28 18 -62 13 -35 25 -71
27 -81 3 -13 15 -3 47 38 40 53 42 57 27 78 -23 34 -18 88 16 155 17 34 34 62
38 62 13 0 34 -116 27 -147 -6 -25 0 -21 56 34 49 49 60 65 50 75 -29 29 -9
103 46 176 19 24 27 30 33 20 12 -19 11 -116 -1 -139 -14 -26 -9 -24 36 12 28
22 32 29 17 25 -21 -7 -23 -4 -23 33 0 45 -17 91 -34 91 -6 0 -18 -6 -26 -13z"/>
<path d="M2352 2859 c71 -98 92 -163 64 -191 -14 -15 -10 -22 44 -77 33 -34
61 -61 62 -61 2 0 2 19 0 43 -4 51 15 130 29 122 5 -4 21 -30 36 -58 31 -62
37 -139 12 -159 -15 -12 -12 -19 26 -70 43 -57 55 -62 55 -24 0 12 11 44 24
73 15 31 19 50 12 47 -7 -3 -22 -25 -34 -49 l-22 -45 -20 20 c-16 16 -19 27
-13 53 12 54 6 104 -18 151 -45 90 -80 96 -100 15 -10 -38 -15 -46 -26 -37 -7
6 -13 7 -13 2 0 -4 -10 3 -22 16 -15 16 -18 25 -10 28 42 14 -24 180 -87 216
-14 9 -14 7 1 -15z"/>
<path d="M2314 2857 c-5 -13 -10 -52 -13 -89 0 -10 -6 -18 -12 -18 -6 0 -9 7
-6 14 4 11 1 13 -10 9 -13 -5 -9 -13 23 -39 21 -18 40 -32 41 -30 2 1 -2 18
-7 37 -6 19 -7 55 -4 81 6 45 0 64 -12 35z"/>
<path d="M2232 2748 c2 -7 -8 -14 -22 -15 -91 -11 -94 -17 -10 -24 47 -4 94
-10 105 -14 14 -5 11 1 -10 19 -16 14 -36 23 -43 21 -7 -3 -10 -1 -7 4 3 5 1
13 -5 16 -6 4 -9 1 -8 -7z"/>
<path d="M720 2718 c-20 -17 -26 -27 -15 -22 11 4 58 10 104 12 94 4 95 21 1
22 -39 0 -51 3 -40 10 13 9 13 10 0 9 -8 0 -31 -14 -50 -31z"/>
<path d="M1502 2694 c-12 -8 -22 -26 -22 -40 0 -34 -24 -30 -66 11 -36 36 -53
42 -70 25 -6 -6 -27 -7 -57 -1 -26 5 -44 5 -41 0 3 -5 -4 -9 -15 -9 -10 0 -22
6 -24 13 -4 8 -8 8 -14 2 -10 -13 -27 -17 -82 -22 -24 -2 -52 -8 -62 -13 -9
-6 -24 -7 -32 -4 -17 6 -67 -33 -67 -53 0 -29 43 -149 57 -160 16 -13 109 -7
128 8 6 4 29 8 52 7 28 0 51 7 68 20 25 20 28 20 51 5 19 -12 30 -13 47 -6 15
7 30 7 45 0 18 -8 29 -6 53 12 29 21 32 22 49 6 21 -19 52 -26 125 -30 28 -2
63 -6 78 -10 17 -4 45 -2 66 5 28 9 53 9 111 0 41 -7 89 -13 107 -14 17 0 35
-4 39 -8 15 -16 71 -8 89 13 18 19 34 104 27 140 -5 29 -50 44 -162 53 -40 4
-120 26 -136 38 -6 4 -42 4 -81 -1 -39 -5 -90 -5 -114 -1 -24 5 -46 7 -48 5
-2 -2 -10 2 -18 10 -19 19 -53 19 -81 -1z m-117 -31 c-11 -31 -35 -127 -35
-144 0 -16 -28 -35 -37 -25 -2 2 2 28 11 57 8 30 17 71 21 92 5 29 10 37 27
37 15 0 18 -4 13 -17z m195 1 c0 -9 -9 -18 -20 -21 -11 -3 -20 -12 -20 -19 0
-8 9 -14 20 -14 11 0 20 -7 20 -15 0 -8 -9 -15 -20 -15 -13 0 -20 -7 -20 -20
0 -14 7 -20 21 -20 35 0 19 -32 -18 -35 l-33 -3 0 89 0 89 35 0 c25 0 35 -4
35 -16z m-271 -8 c7 -8 11 -34 9 -58 -3 -40 -5 -43 -33 -43 -27 0 -30 4 -38
44 -8 38 -6 47 9 58 23 17 39 16 53 -1z m528 -8 c-3 -13 -9 -54 -12 -91 -6
-55 -10 -67 -24 -65 -9 2 -15 12 -14 23 1 11 5 50 8 88 6 59 9 67 27 67 16 0
19 -5 15 -22z m-620 0 c4 -7 13 -39 19 -71 9 -46 8 -61 -3 -77 -15 -21 -39
-25 -61 -11 -18 11 -34 129 -21 153 11 21 54 24 66 6z m444 2 c18 0 19 -6 15
-77 -5 -76 -13 -93 -48 -93 -26 0 -48 11 -42 21 3 5 16 9 30 9 13 0 24 5 24
11 0 5 -4 8 -9 5 -5 -4 -16 -3 -25 0 -12 5 -16 20 -16 58 0 54 14 80 38 71 8
-3 22 -5 33 -5z m-551 -10 c19 -12 41 -129 29 -152 -6 -11 -21 -18 -39 -18
-31 0 -42 22 -54 105 -7 42 -1 58 24 68 21 8 23 8 40 -3z m665 -69 c-4 -42
-10 -80 -15 -84 -11 -12 -76 -4 -72 8 1 6 10 10 20 11 33 2 37 6 12 13 -20 5
-26 14 -28 45 -6 70 3 85 49 84 l41 0 -7 -77z m139 56 c12 -9 17 -23 14 -42
-3 -26 -7 -30 -30 -27 -25 3 -28 0 -28 -25 1 -25 2 -26 14 -10 18 23 36 22 36
-3 0 -27 -34 -44 -61 -29 -19 10 -21 18 -17 71 5 73 30 96 72 65z m-876 -79
c11 -65 11 -83 1 -89 -21 -13 -27 -2 -34 62 -5 46 -10 59 -21 55 -18 -7 -19
20 -1 39 29 33 42 17 55 -67z m973 61 c16 -16 18 -24 9 -32 -8 -9 -14 -8 -24
5 -7 10 -16 15 -19 11 -4 -3 5 -19 19 -36 17 -20 23 -36 18 -51 -11 -36 -48
-48 -72 -24 -17 17 -15 48 3 48 8 0 15 -7 15 -15 0 -8 5 -15 10 -15 17 0 11
26 -10 45 -25 22 -26 61 -2 74 24 15 29 14 53 -10z m-567 -5 c3 -9 6 -33 6
-55 0 -33 -4 -40 -24 -45 -14 -3 -29 -3 -34 0 -16 10 -24 74 -12 96 13 24 55
27 64 4z m664 -6 c13 -13 17 -48 5 -48 -3 0 -15 7 -25 17 -10 9 -18 12 -18 6
0 -5 9 -18 20 -28 37 -34 21 -89 -25 -83 -35 4 -55 32 -37 50 11 11 16 9 28
-6 8 -11 14 -14 14 -8 0 7 -9 26 -21 41 -17 23 -19 32 -10 50 13 23 50 28 69
9z"/>
<path d="M1270 2611 c0 -17 5 -33 10 -36 6 -4 10 8 10 29 0 20 -4 36 -10 36
-5 0 -10 -13 -10 -29z"/>
<path d="M1180 2600 c0 -44 10 -80 21 -80 11 0 0 91 -12 105 -5 5 -9 -5 -9
-25z"/>
<path d="M1627 2623 c-11 -10 -8 -73 3 -73 6 0 10 18 10 40 0 41 -2 45 -13 33z"/>
<path d="M1084 2558 c7 -54 12 -65 21 -56 10 9 -7 108 -18 108 -6 0 -7 -19 -3
-52z"/>
<path d="M1726 2588 c-3 -17 -2 -36 3 -41 5 -5 10 6 13 28 5 45 -7 56 -16 13z"/>
<path d="M1400 2565 c0 -19 5 -35 10 -35 6 0 10 16 10 35 0 19 -4 35 -10 35
-5 0 -10 -16 -10 -35z"/>
<path d="M805 2662 c-56 -30 -82 -37 -128 -38 -58 -1 -59 -2 -115 -59 -46 -46
-52 -56 -32 -50 14 4 61 10 105 13 l80 5 -55 11 c-37 8 -55 16 -55 26 0 8 6
14 13 13 6 -2 12 1 12 6 0 5 24 11 53 13 61 5 167 50 185 78 7 11 11 20 10 19
-2 0 -34 -17 -73 -37z"/>
<path d="M2134 2682 c30 -34 126 -75 185 -80 53 -4 96 -25 86 -42 -3 -4 -31
-11 -62 -16 l-58 -8 85 -7 c47 -3 94 -10 105 -14 12 -6 -1 15 -31 49 l-51 59
-64 1 c-54 1 -75 8 -132 39 -76 42 -87 45 -63 19z"/>
<path d="M252 2498 c-7 -7 -12 -18 -12 -26 0 -7 -4 -11 -8 -8 -8 5 -9 1 -12
-96 -2 -48 2 -73 14 -89 20 -29 20 -53 1 -69 -13 -11 -14 -10 -9 5 5 12 4 16
-4 11 -6 -4 -27 10 -47 31 -34 36 -36 37 -50 19 -37 -48 -22 -189 25 -231 11
-10 20 -30 19 -44 0 -14 -3 -20 -6 -13 -2 6 -9 12 -13 12 -5 0 -26 11 -46 25
-58 40 -52 21 15 -42 l61 -58 11 53 c10 50 9 55 -10 69 -43 30 -65 105 -55
185 8 58 17 54 71 -34 l37 -59 19 48 c10 26 22 53 27 58 6 7 2 15 -10 22 -32
21 -44 78 -30 142 7 31 17 64 22 74 12 23 6 31 -10 15z"/>
<path d="M625 2474 c-51 -25 -83 -34 -120 -34 l-50 0 -42 -62 c-24 -34 -42
-63 -40 -64 1 -1 27 6 57 16 30 11 75 20 100 20 38 1 41 3 22 10 -12 5 -45 8
-72 5 l-50 -4 21 28 c18 24 30 29 79 34 56 5 180 60 180 79 0 12 -10 9 -85
-28z"/>
<path d="M2300 2503 c0 -26 138 -83 200 -83 42 0 60 -14 53 -40 -4 -16 -12
-18 -53 -13 -27 3 -50 1 -54 -5 -3 -6 19 -12 58 -17 36 -3 81 -15 100 -25 20
-10 36 -16 36 -13 0 2 -20 33 -45 68 l-45 63 -58 4 c-49 3 -92 19 -184 66 -5
2 -8 0 -8 -5z"/>
<path d="M2740 2496 c0 -2 7 -23 15 -46 26 -74 16 -161 -21 -183 -10 -6 -9
-16 5 -50 10 -23 21 -51 25 -62 6 -17 10 -13 32 24 13 24 36 57 49 73 43 51
18 44 -29 -8 l-45 -49 -11 29 c-9 24 -7 32 7 48 33 36 17 228 -18 228 -5 0 -9
-2 -9 -4z"/>
<path d="M525 2308 c-56 -42 -134 -78 -172 -78 -18 0 -33 -2 -33 -4 0 -2 -11
-29 -25 -61 l-26 -57 28 20 c31 21 115 51 147 53 12 1 4 5 -18 10 -26 6 -43 6
-52 -2 -7 -6 -21 -9 -31 -6 -13 3 -11 5 7 7 23 1 24 2 5 11 -19 9 -18 9 3 5
12 -2 22 -1 22 3 0 4 15 8 32 9 18 2 36 9 41 17 4 8 13 15 20 15 7 0 24 10 39
23 15 12 37 29 48 38 12 9 18 19 13 22 -5 3 -26 -8 -48 -25z"/>
<path d="M2090 2306 c-36 -18 -76 -37 -90 -41 l-25 -7 24 26 24 26 -56 -20
c-31 -11 -64 -20 -72 -20 -9 0 -14 -4 -11 -9 3 -5 -1 -11 -9 -15 -8 -3 -12
-11 -9 -19 7 -19 -22 -41 -43 -33 -10 4 -14 4 -11 0 12 -12 -51 -57 -72 -51
-11 3 -20 1 -20 -4 0 -6 -8 -5 -20 1 -27 15 -25 34 5 48 36 17 32 33 -5 20
-17 -5 -35 -19 -42 -31 -9 -17 -7 -24 13 -40 32 -25 125 -20 156 8 42 39 57
49 72 52 9 1 24 12 34 25 13 15 31 23 59 25 45 3 108 29 164 67 57 39 14 34
-66 -8z"/>
<path d="M2430 2335 c0 -7 59 -65 66 -65 3 0 21 -11 42 -25 20 -13 56 -27 79
-31 24 -3 40 -10 38 -14 -3 -5 3 -11 12 -13 11 -3 8 -5 -9 -6 -16 0 -28 4 -28
9 0 13 -67 7 -81 -7 -8 -8 -8 -17 0 -31 6 -10 7 -23 3 -28 -4 -5 -4 -6 1 -3 4
3 34 -21 68 -53 33 -32 69 -58 80 -58 10 0 19 -4 19 -10 0 -13 -15 -13 -63 1
-52 14 -60 3 -11 -16 55 -22 95 -44 123 -69 23 -20 24 -20 17 -1 -4 11 -12 40
-17 65 -8 38 -14 46 -35 48 -13 1 -37 8 -52 16 -32 17 -137 125 -129 133 11
10 107 -19 142 -43 19 -13 35 -20 35 -17 0 19 -54 121 -62 117 -21 -13 -91 11
-150 50 -83 56 -88 58 -88 51z"/>
<path d="M1520 2268 c-25 -27 -26 -48 -1 -48 11 0 21 9 24 21 4 16 11 20 26
16 11 -3 21 -1 23 5 5 14 38 -2 38 -19 0 -8 5 -11 10 -8 6 3 10 1 10 -4 0 -6
-11 -11 -25 -11 -14 0 -25 6 -25 13 0 8 -3 7 -9 -3 -7 -10 -4 -18 11 -28 18
-13 26 -11 75 13 45 24 56 26 64 14 5 -8 9 -9 9 -2 0 6 26 14 60 18 33 4 60
10 60 14 0 4 -41 3 -90 -2 -82 -8 -96 -7 -140 12 -62 27 -94 27 -120 -1z"/>
<path d="M2880 2203 c0 -76 -25 -144 -59 -162 -17 -10 -19 -16 -11 -37 6 -14
10 -39 10 -56 l0 -31 60 58 c32 33 57 61 55 64 -6 5 -75 -42 -75 -51 0 -14
-18 -8 -24 7 -3 9 9 35 29 61 34 44 35 49 35 130 0 49 -4 84 -10 84 -6 0 -10
-29 -10 -67z"/>
<path d="M1410 2218 c-25 -27 -34 -59 -25 -88 19 -60 102 -81 143 -37 23 24
29 57 11 57 -5 0 -7 5 -4 10 3 6 -1 10 -9 10 -9 0 -16 5 -16 10 0 6 -8 10 -17
10 -15 -1 -14 -4 5 -20 13 -11 21 -24 17 -30 -3 -6 0 -7 9 -4 22 9 20 -12 -4
-36 -54 -54 -145 5 -119 78 13 37 65 64 80 41 7 -11 9 -11 9 4 0 26 -54 23
-80 -5z"/>
<path d="M1987 2198 c-51 -82 -66 -121 -57 -138 16 -30 12 -46 -26 -95 -26
-34 -33 -50 -25 -58 8 -8 11 -8 11 1 0 7 0 14 0 17 0 2 11 16 25 31 27 29 40
73 30 103 -5 18 36 108 68 149 6 8 6 12 -2 12 -6 0 -17 -10 -24 -22z"/>
<path d="M1543 2199 c-8 -8 -6 -16 8 -30 22 -22 32 -23 60 -8 19 10 18 12 -17
30 -45 23 -38 21 -51 8z"/>
<path d="M419 2131 c-41 -52 -106 -99 -144 -104 -26 -3 -30 -9 -41 -58 -18
-75 -18 -76 14 -46 15 14 53 38 86 52 32 14 57 28 54 30 -4 4 -46 -6 -79 -19
-10 -5 -16 -2 -16 8 0 8 4 13 9 10 4 -3 8 -2 8 3 0 4 20 21 45 36 49 31 109
100 103 119 -2 6 -20 -8 -39 -31z"/>
<path d="M1871 2128 c-13 -47 -42 -87 -64 -89 -7 0 -21 -3 -32 -5 -11 -3 -30
-6 -42 -7 -13 -1 -23 -6 -23 -11 0 -12 89 3 123 21 33 16 60 73 54 112 -3 22
-5 19 -16 -21z"/>
<path d="M1856 2025 c-17 -13 -18 -15 -3 -15 10 0 17 -8 17 -20 0 -11 -5 -20
-11 -20 -5 0 -7 -4 -4 -10 6 -9 -8 -14 -28 -11 -5 1 -5 -4 -1 -10 4 -8 -1 -9
-17 -5 -18 5 -20 5 -8 -3 25 -16 49 -7 69 27 20 32 27 82 13 82 -5 0 -17 -7
-27 -15z"/>
<path d="M41 1978 c-1 -31 4 -60 9 -63 6 -3 10 -13 10 -22 0 -9 12 -32 27 -52
16 -20 27 -39 25 -43 -1 -5 5 -8 13 -8 8 0 15 -9 15 -20 0 -18 -4 -17 -47 10
-58 37 -93 40 -38 4 22 -15 57 -43 78 -62 l37 -36 0 55 c0 50 -3 57 -30 77
-43 32 -57 58 -79 143 l-19 74 -1 -57z"/>
<path d="M1266 2009 c-20 -16 -26 -29 -26 -59 0 -44 -8 -70 -22 -70 -5 0 -7 4
-4 9 3 5 -1 12 -10 15 -23 9 -34 7 -34 -5 0 -5 5 -7 12 -3 6 4 8 3 5 -3 -6 -9
22 -41 50 -57 22 -12 63 17 83 59 22 46 26 75 9 75 -7 0 -18 8 -25 17 -7 10
-16 14 -20 10 -5 -4 -2 -12 6 -17 13 -8 12 -10 -2 -10 -25 0 -23 31 2 37 11 3
20 9 20 14 0 15 -16 10 -44 -12z m32 -52 c20 -1 14 -35 -8 -42 -27 -9 -40 1
-40 32 0 20 4 24 18 18 9 -4 23 -8 30 -8z"/>
<path d="M2956 2018 c-2 -7 -9 -39 -16 -70 -13 -64 -45 -118 -78 -133 -17 -8
-22 -18 -22 -50 0 -22 -3 -51 -6 -65 -6 -24 -5 -24 22 6 34 37 122 99 129 92
9 -8 -26 -109 -50 -148 -28 -44 -71 -80 -95 -80 -13 0 -19 -11 -23 -45 -4 -25
-9 -57 -13 -72 l-6 -28 24 27 c24 27 101 82 152 108 22 11 25 16 12 18 -9 2
-28 -3 -41 -12 -49 -32 -98 -57 -102 -52 -10 10 6 36 22 36 23 0 77 67 122
149 7 13 13 44 13 68 l0 46 -32 -7 c-18 -4 -49 -18 -68 -31 -43 -31 -53 -15
-14 23 37 36 74 121 81 182 5 45 -2 69 -11 38z"/>
<path d="M1635 1990 c-17 -18 -17 -20 -2 -14 10 3 17 1 17 -5 0 -6 5 -10 11
-8 17 3 33 -63 20 -76 -8 -8 -11 -7 -11 2 0 7 -5 9 -10 6 -7 -4 -9 3 -5 22 5
19 4 24 -3 14 -5 -7 -15 -10 -22 -6 -9 6 -9 3 -1 -13 18 -34 14 -50 -13 -45
-14 3 -23 10 -20 17 7 20 -12 38 -37 34 -27 -3 -34 -24 -24 -75 6 -35 7 -35
48 -29 57 9 245 54 229 55 -7 1 -10 6 -6 13 5 7 2 9 -9 5 -11 -4 -14 -2 -10 9
4 10 -3 14 -27 14 -31 0 -32 -1 -16 -18 15 -18 15 -19 -8 -30 -24 -11 -24 -10
-22 38 2 31 9 57 21 70 17 18 17 20 1 20 -9 0 -14 -4 -11 -10 11 -18 -14 -11
-35 10 -25 25 -32 25 -55 0z m-60 -135 c0 -10 -6 -20 -12 -22 -8 -3 -13 5 -13
22 0 17 5 25 13 23 6 -3 12 -13 12 -23z"/>
<path d="M1782 1980 l-32 -30 32 1 c18 0 27 3 20 6 -10 4 -8 11 9 29 32 34 10
29 -29 -6z"/>
<path d="M1428 1993 c-22 -5 -31 -39 -23 -78 11 -51 10 -58 -3 -62 -9 -4 -12
3 -10 22 2 16 -2 30 -9 32 -8 3 -11 -12 -10 -52 l2 -56 70 3 c64 3 70 5 66 23
-2 11 -3 43 -2 71 1 40 -2 53 -15 58 -9 4 -19 4 -22 1 -3 -3 0 -5 6 -5 9 0 10
-40 2 -60 -1 -3 -3 -18 -3 -35 -2 -25 -7 -31 -29 -33 -29 -3 -38 14 -17 35 7
7 8 17 1 29 -6 13 -5 30 4 54 9 24 13 29 14 15 1 -18 2 -18 11 3 9 23 5 43 -9
41 -4 -1 -15 -3 -24 -6z"/>
<path d="M379 1953 c-42 -71 -89 -122 -124 -134 l-35 -13 0 -73 0 -74 30 34
c16 19 57 49 92 67 34 19 57 35 51 37 -16 6 -143 -56 -143 -70 0 -8 -3 -8 -11
0 -14 14 0 63 20 71 30 11 80 54 87 74 3 11 12 17 20 14 7 -3 13 -2 12 2 -3
12 14 56 29 74 9 9 10 18 5 22 -6 3 -20 -11 -33 -31z"/>
<path d="M2600 1975 c0 -20 55 -112 80 -133 8 -7 32 -24 53 -38 26 -17 37 -31
37 -49 0 -31 -3 -31 -59 3 -43 27 -101 48 -101 38 0 -3 25 -19 56 -37 31 -17
71 -47 90 -66 l34 -34 0 76 c0 65 -2 75 -18 75 -28 0 -92 59 -133 123 -23 35
-39 52 -39 42z"/>
<path d="M1135 1949 c-16 -12 -22 -18 -12 -15 11 3 30 9 43 12 13 3 21 10 18
15 -8 13 -16 11 -49 -12z"/>
<path d="M1110 1902 c0 -5 65 -42 74 -42 5 0 3 7 -4 15 -7 8 -17 12 -23 8 -6
-4 -8 0 -5 8 4 10 -2 14 -18 14 -13 0 -24 -1 -24 -3z"/>
<path d="M1894 1850 c1 -11 15 -16 51 -18 27 -2 47 -1 44 2 -3 3 -24 7 -47 8
-23 1 -43 6 -45 12 -2 6 -3 4 -3 -4z"/>
<path d="M1715 1824 c-49 -12 -132 -28 -182 -35 -55 -7 -90 -15 -87 -21 4 -5
27 -7 53 -4 84 10 286 59 301 73 8 7 12 12 10 12 -3 -1 -45 -12 -95 -25z"/>
<path d="M1835 1824 c-43 -26 -43 -31 2 -12 15 6 31 11 36 10 4 -1 7 5 7 13 0
8 -1 15 -2 14 -2 0 -21 -12 -43 -25z"/>
<path d="M1160 1820 c28 -16 220 -61 248 -58 17 2 -23 15 -105 36 -136 33
-170 38 -143 22z"/>
<path d="M1873 1800 c-12 -5 -32 -23 -44 -39 -13 -17 -29 -31 -37 -31 -8 0
-28 -10 -45 -22 -24 -17 -45 -23 -82 -22 l-50 2 37 -13 c28 -10 45 -11 72 -3
20 6 36 15 36 20 0 4 5 8 10 8 24 0 84 31 73 38 -8 5 -4 15 13 31 13 13 24 19
24 13 0 -6 9 -8 20 -5 11 3 20 9 20 14 0 4 15 10 33 12 25 3 22 4 -13 5 -25 0
-55 -3 -67 -8z"/>
<path d="M1115 1791 c-16 -6 -9 -10 30 -19 28 -5 59 -10 70 -10 11 0 45 -3 75
-6 56 -6 54 -4 -38 19 -33 8 -50 9 -45 2 4 -6 -2 -8 -18 -4 -13 4 -32 7 -42 7
-10 0 -15 5 -12 10 7 11 7 11 -20 1z"/>
<path d="M9 1790 c-5 -18 -4 -79 1 -70 5 7 10 2 14 -14 12 -48 59 -113 102
-142 24 -16 44 -37 44 -47 0 -14 -3 -15 -19 -5 -11 7 -17 16 -15 20 3 5 2 7
-3 6 -15 -4 -53 13 -53 24 0 5 -6 8 -14 5 -7 -3 -18 -1 -24 5 -20 20 -42 0
-42 -36 0 -19 3 -36 7 -38 5 -1 18 -23 31 -48 13 -25 36 -60 52 -77 16 -17 26
-34 22 -38 -4 -4 2 -6 13 -5 33 4 45 1 45 -11 0 -8 -11 -9 -32 -5 -18 3 -46 8
-63 12 -17 3 5 -12 50 -34 44 -21 96 -52 114 -68 19 -16 32 -22 29 -14 -3 8
-14 41 -24 73 -15 48 -21 57 -41 57 -36 0 -77 25 -116 71 -35 40 -85 145 -74
155 8 8 116 -62 161 -105 29 -27 37 -31 33 -16 -4 11 -9 32 -12 48 -3 15 -7
37 -10 50 -3 15 -16 27 -40 36 -42 15 -77 64 -111 153 -12 35 -24 61 -25 58z
m198 -500 c-1 -15 -4 -17 -17 -7 -8 6 -17 12 -19 14 -1 1 0 6 3 12 10 16 35 2
33 -19z"/>
<path d="M1695 1774 c-22 -8 -62 -19 -90 -23 l-50 -9 46 -1 c46 -1 134 23 145
40 7 12 -3 11 -51 -7z"/>
<path d="M1065 1770 c-4 -6 -5 -13 -4 -15 13 -11 140 -55 160 -55 13 0 51 -9
84 -20 l60 -21 -50 5 c-39 4 -45 3 -26 -5 14 -5 43 -9 65 -7 23 1 61 1 86 -1
39 -3 41 -4 20 -11 -14 -4 -45 -9 -70 -10 -40 -2 -42 -3 -15 -9 17 -4 70 1
120 11 50 10 103 18 119 18 37 0 24 16 -19 24 -24 5 -26 4 -10 -3 16 -8 12
-10 -25 -12 -72 -5 -100 -2 -182 17 -46 10 -79 23 -83 32 -4 11 0 13 17 8 38
-11 51 -14 111 -21 31 -4 59 -11 62 -15 6 -10 54 0 62 13 3 5 1 7 -5 4 -5 -4
-45 0 -89 8 -43 9 -121 18 -173 20 -52 3 -96 9 -98 15 -2 5 -18 7 -35 4 -26
-5 -29 -3 -17 6 13 10 12 11 -4 6 -11 -4 -26 0 -36 9 -13 12 -20 13 -25 5z"/>
<path d="M1745 1755 c-27 -13 -45 -24 -40 -24 22 -2 84 20 95 34 17 20 4 18
-55 -10z"/>
<path d="M2590 1766 c0 -38 55 -128 105 -174 57 -51 61 -57 46 -81 -8 -12 -15
-10 -43 11 -40 30 -92 58 -110 58 -7 0 18 -21 56 -46 37 -25 75 -59 84 -75 20
-35 32 -37 32 -6 0 12 3 46 6 75 6 44 4 52 -10 52 -29 0 -95 71 -127 136 -33
66 -39 74 -39 50z"/>
<path d="M378 1718 c-35 -73 -72 -115 -114 -130 -30 -10 -34 -16 -30 -38 3
-14 8 -47 12 -73 l6 -48 34 40 c19 22 58 54 87 72 28 18 47 34 41 36 -12 4
-97 -41 -114 -62 -16 -19 -40 -8 -40 19 0 13 11 28 29 39 38 22 85 82 106 135
26 63 13 70 -17 10z"/>
<path d="M1046 1720 c6 -6 31 -14 55 -16 54 -6 34 11 -26 21 -31 6 -37 5 -29
-5z"/>
<path d="M1640 1710 c-12 -8 -10 -10 10 -9 14 1 36 5 50 9 23 7 22 8 -10 9
-19 0 -42 -4 -50 -9z"/>
<path d="M1045 1680 c4 -6 10 -8 15 -5 5 3 11 1 15 -4 3 -6 25 -8 48 -6 25 2
47 -1 57 -9 14 -12 167 -66 186 -66 5 0 -4 7 -21 14 -163 75 -168 76 -216 72
-27 -3 -51 -1 -54 4 -4 6 -13 10 -21 10 -8 0 -12 -5 -9 -10z"/>
<path d="M1850 1646 c-6 -8 -17 -13 -24 -10 -6 2 -20 -2 -30 -9 -18 -13 -16
-14 13 -12 29 2 91 45 64 45 -6 0 -16 -6 -23 -14z"/>
<path d="M1715 1640 c-16 -4 -41 -13 -55 -19 l-25 -11 25 4 c74 13 140 28 140
32 0 6 -51 3 -85 -6z"/>
<path d="M1465 1610 c-4 -6 17 -10 55 -10 38 0 59 4 55 10 -3 6 -28 10 -55 10
-27 0 -52 -4 -55 -10z"/>
<path d="M430 1567 c0 -1 -11 -33 -25 -71 -29 -80 -65 -131 -104 -149 l-28
-12 19 -64 20 -64 18 40 c9 22 43 62 74 88 31 27 54 50 52 53 -8 8 -62 -27
-96 -62 -39 -40 -50 -44 -50 -18 0 10 11 25 25 32 30 16 90 130 100 188 4 23
4 42 1 42 -3 0 -6 -1 -6 -3z"/>
<path d="M1239 1555 c39 -18 138 -21 108 -4 -11 6 -47 13 -80 16 l-62 4 34
-16z"/>
<path d="M1636 1555 c-26 -7 -78 -12 -115 -11 l-66 3 43 -13 c24 -7 60 -14 80
-14 37 -1 154 29 168 43 12 11 -56 6 -110 -8z"/>
<path d="M2571 1548 c-2 -47 43 -149 84 -190 23 -24 40 -49 38 -55 -7 -19 -21
-16 -28 7 -4 11 -11 18 -16 15 -5 -4 -9 -2 -9 3 0 15 -81 64 -96 58 -17 -6
-18 -72 -3 -131 22 -83 22 -88 10 -81 -6 4 -9 11 -7 15 3 4 0 8 -7 8 -7 0 -21
4 -32 9 -12 5 -2 -12 28 -45 33 -37 49 -65 53 -92 4 -22 9 -39 13 -39 3 0 17
21 29 47 l24 46 -30 24 c-35 27 -66 102 -75 181 -7 59 -7 59 61 5 23 -19 52
-53 64 -76 l21 -42 19 60 c15 43 17 60 8 63 -31 11 -79 67 -102 119 -47 111
-47 109 -47 91z"/>
<path d="M2978 1513 c-34 -95 -96 -161 -164 -172 -33 -6 -37 -10 -58 -73 -12
-38 -21 -68 -19 -68 2 0 16 11 30 24 15 14 64 43 110 65 46 22 83 43 83 46 0
7 -51 -5 -65 -15 -5 -4 -18 -10 -27 -13 -15 -5 -16 -4 -5 13 6 11 16 20 20 20
14 0 97 111 97 130 0 4 5 10 11 12 6 2 9 21 7 42 l-3 38 -17 -49z"/>
<path d="M1365 1530 c-17 -7 -14 -9 15 -11 19 -1 44 -3 55 -4 11 -1 43 -5 70
-9 l50 -6 -65 20 c-71 21 -95 23 -125 10z"/>
<path d="M623 1415 c-21 -15 -22 -22 -19 -111 2 -69 7 -98 17 -105 22 -14 91
-10 122 5 16 9 27 11 27 4 0 -10 34 -8 90 6 14 3 34 -1 48 -10 18 -12 27 -13
37 -4 9 8 20 8 31 2 22 -12 52 -4 56 16 3 14 5 14 21 -2 9 -10 17 -14 17 -10
0 5 5 3 11 -3 7 -7 20 -8 33 -4 11 5 30 5 41 0 32 -12 88 -10 118 5 15 8 27
11 27 5 0 -18 49 -9 64 13 l16 22 16 -22 c21 -30 70 -28 67 3 -11 83 -2 125
23 104 11 -9 17 -9 29 1 12 10 16 8 25 -14 5 -14 14 -26 20 -26 6 0 4 -7 -4
-16 -37 -37 -11 -74 57 -81 79 -9 122 65 73 125 -21 24 -23 31 -11 36 19 7 19
40 1 55 -23 19 -92 18 -114 -2 -18 -16 -20 -16 -37 3 -16 18 -21 19 -39 6 -14
-9 -29 -10 -43 -5 -46 17 -109 19 -129 5 -14 -11 -22 -12 -32 -3 -20 16 -113
17 -139 1 -18 -11 -23 -11 -33 1 -9 11 -17 12 -31 4 -10 -5 -19 -6 -19 -2 0 4
-4 2 -9 -6 -7 -11 -13 -11 -32 2 -21 15 -24 15 -41 0 -11 -10 -18 -30 -18 -52
0 -64 -14 -65 -43 -2 -15 32 -35 62 -44 66 -22 8 -52 -26 -60 -67 -3 -15 -9
-25 -14 -22 -5 3 -9 -4 -9 -16 0 -12 -4 -18 -10 -15 -5 3 -10 23 -10 44 0 25
-7 44 -20 56 -27 25 -99 30 -127 10z m111 -18 c13 -10 19 -30 22 -82 4 -89 -8
-105 -83 -105 l-53 0 0 93 c0 52 3 97 7 100 11 12 89 7 107 -6z m179 -80 c20
-51 37 -96 37 -100 0 -17 -38 -5 -43 13 -4 17 -11 19 -39 13 -18 -3 -37 -12
-41 -20 -4 -7 -16 -13 -27 -13 -17 0 -16 7 16 96 19 53 34 98 34 100 0 2 6 4
13 4 8 0 30 -41 50 -93z m101 68 c4 -14 4 -30 1 -35 -4 -6 -2 -10 3 -10 5 0
20 16 33 35 23 34 59 48 59 23 -1 -7 -11 -26 -24 -41 l-23 -29 28 -51 c34 -62
35 -67 9 -67 -13 0 -25 14 -39 46 -24 53 -41 50 -41 -7 0 -32 -3 -39 -20 -39
-19 0 -20 7 -20 100 0 79 3 100 14 100 8 0 17 -11 20 -25z m266 5 c0 -17 -7
-20 -45 -20 -42 0 -45 -2 -45 -26 0 -22 4 -25 21 -21 27 7 49 -1 49 -19 0 -10
-12 -14 -40 -14 -36 0 -40 -2 -36 -22 2 -20 8 -22 44 -19 37 2 42 0 42 -19 0
-19 -5 -21 -57 -18 l-58 3 -3 98 -3 97 66 0 c58 0 65 -2 65 -20z m152 3 c22
-20 23 -60 2 -84 -14 -16 -14 -21 6 -58 l20 -41 -21 0 c-15 0 -25 11 -37 40
-23 55 -52 55 -52 0 0 -33 -3 -40 -20 -40 -19 0 -20 7 -20 93 0 52 3 97 7 100
13 14 96 7 115 -10z m87 -5 c0 -13 -4 -32 -8 -43 -8 -19 -9 -18 -21 7 -15 31
-8 58 15 58 9 0 15 -9 14 -22z m142 12 c19 -11 27 -40 10 -40 -5 0 -20 4 -34
9 -13 5 -30 6 -37 1 -20 -13 -4 -37 29 -45 32 -7 61 -38 61 -64 0 -8 -7 -23
-17 -33 -28 -31 -123 -19 -123 16 0 21 27 27 41 10 16 -19 53 -14 57 8 2 11
-8 20 -35 28 -63 20 -81 62 -43 100 22 22 60 26 91 10z m-531 -80 c-7 -4 -10
-15 -6 -25 4 -11 2 -15 -6 -13 -15 5 -22 42 -14 64 5 14 8 13 23 -1 13 -13 14
-18 3 -25z m163 27 c3 -8 2 -20 -3 -27 -6 -9 -12 -8 -28 8 l-21 21 22 4 c12 2
23 5 23 6 1 0 4 -5 7 -12z"/>
<path d="M673 1373 c-7 -3 -13 -13 -13 -24 0 -14 7 -19 30 -19 20 0 30 5 30
15 0 17 -29 34 -47 28z"/>
<path d="M660 1275 c0 -21 5 -25 29 -25 37 0 50 19 26 37 -31 22 -55 16 -55
-12z"/>
<path d="M853 1310 c-11 -28 -10 -30 13 -30 27 0 29 5 11 37 l-13 23 -11 -30z"/>
<path d="M1350 1345 c0 -20 5 -25 24 -25 26 0 51 24 41 40 -3 5 -19 10 -36 10
-24 0 -29 -4 -29 -25z"/>
<path d="M1799 1420 c-10 -7 -15 -35 -17 -103 -3 -77 -1 -97 13 -110 12 -13
21 -15 36 -7 10 6 19 15 19 20 0 5 15 0 34 -11 33 -19 34 -19 57 0 20 16 25
17 34 4 16 -22 85 -27 126 -10 30 12 38 12 54 1 48 -35 135 1 135 55 0 16 -9
39 -19 52 -17 22 -17 27 -5 44 14 19 15 19 33 0 13 -14 21 -41 25 -85 3 -36 5
-66 6 -67 0 -2 14 -3 30 -3 17 0 30 1 30 3 0 1 3 34 6 72 4 53 10 73 25 84 23
16 25 44 4 61 -11 9 -32 11 -73 5 -58 -7 -68 -7 -146 -4 -26 1 -52 -3 -62 -11
-14 -12 -18 -12 -28 1 -14 19 -126 20 -149 1 -10 -9 -17 -10 -22 -2 -11 18
-47 11 -52 -10 -6 -24 -16 -25 -33 -4 -21 24 -45 34 -61 24z m65 -72 l36 -63
0 63 c0 55 2 62 20 62 19 0 20 -7 20 -100 0 -92 -2 -100 -19 -100 -13 0 -30
19 -53 58 -35 61 -43 56 -36 -19 3 -32 0 -39 -14 -39 -16 0 -18 11 -18 100 0
122 12 129 64 38z m246 42 c0 -17 -7 -20 -45 -20 -42 0 -45 -2 -45 -26 0 -15
4 -23 11 -19 16 11 59 -4 59 -20 0 -10 -11 -15 -35 -15 -30 0 -35 -3 -35 -23
0 -21 4 -23 36 -19 34 4 53 -7 54 -31 0 -4 -28 -7 -62 -5 l-63 3 -3 98 -3 97
66 0 c58 0 65 -2 65 -20z m144 5 c30 -23 6 -43 -30 -26 -20 9 -30 9 -40 0 -22
-18 -17 -26 32 -45 55 -21 73 -54 49 -90 -23 -36 -90 -34 -130 4 -17 16 -36
27 -43 24 -14 -4 -16 14 -2 23 14 9 12 55 -2 56 -7 0 -4 4 7 8 16 6 22 3 31
-18 6 -14 9 -29 7 -33 -2 -5 4 -8 14 -8 17 -1 17 -1 1 -11 -10 -5 -18 -15 -18
-21 0 -9 3 -9 11 -1 8 8 18 7 38 -5 28 -15 61 -11 61 7 0 6 -21 21 -47 33 -39
18 -49 29 -51 51 -7 57 64 89 112 52z m171 -5 c0 -8 -10 -16 -22 -18 -22 -3
-23 -8 -23 -83 0 -72 -2 -79 -20 -79 -18 0 -20 7 -20 80 0 73 -2 80 -19 80
-11 0 -23 5 -26 10 -13 22 9 31 68 28 47 -2 62 -7 62 -18z"/>
<path d="M456 1314 c-9 -76 -42 -149 -77 -171 l-28 -18 29 -50 c17 -29 30 -42
30 -32 0 25 27 75 67 125 38 47 30 55 -16 16 l-30 -25 18 43 c22 49 38 168 23
168 -5 0 -12 -25 -16 -56z"/>
<path d="M30 1313 c0 -47 98 -170 161 -201 34 -17 39 -23 25 -28 -10 -4 -21
-3 -25 2 -3 5 -22 10 -41 11 -49 4 -23 -10 90 -47 51 -17 106 -40 124 -52 l31
-23 -17 25 c-10 14 -30 46 -44 71 -23 39 -30 45 -55 41 -62 -9 -144 52 -213
158 -20 30 -36 49 -36 43z m276 -244 c6 -10 -11 -11 -44 -2 -16 4 -20 8 -12
13 14 9 48 2 56 -11z"/>
<path d="M2939 1268 c-65 -101 -148 -163 -211 -156 -23 2 -32 -6 -68 -61 -22
-34 -37 -61 -33 -59 61 31 117 54 169 68 85 25 115 44 54 34 -25 -3 -54 -7
-65 -8 -11 0 -23 -4 -26 -9 -3 -4 -21 -12 -40 -17 l-34 -10 25 19 c13 11 28
17 32 15 4 -3 8 0 8 6 0 6 8 9 18 5 11 -3 30 3 45 15 15 12 32 18 39 14 7 -4
10 -4 6 0 -3 4 14 28 38 53 42 44 92 129 81 139 -2 3 -20 -19 -38 -48z"/>
<path d="M528 1138 c6 -97 -3 -144 -34 -175 l-25 -24 39 -49 40 -50 6 43 c4
23 20 66 37 95 16 28 25 52 21 52 -15 0 -40 -33 -57 -74 -11 -26 -21 -36 -33
-34 -9 2 -15 8 -12 13 3 6 9 9 13 7 5 -1 6 2 2 8 -4 6 -1 18 6 26 19 23 24
195 6 218 -13 17 -14 11 -9 -56z"/>
<path d="M2461 1147 c-8 -47 -8 -79 0 -118 6 -30 11 -59 12 -66 0 -7 4 -10 9
-7 15 10 20 -25 5 -40 -13 -13 -17 -10 -31 28 -9 23 -30 55 -46 71 -17 16 -30
34 -30 41 0 19 -50 54 -76 54 -14 0 -33 -6 -44 -12 -17 -11 -26 -10 -50 4 -33
19 -67 14 -91 -14 -9 -10 -21 -18 -26 -18 -6 0 -17 -7 -24 -17 -11 -13 -11
-17 -1 -20 7 -3 17 -13 22 -23 17 -31 -17 -34 -35 -2 -14 24 -16 24 -12 5 5
-20 1 -23 -26 -23 -24 0 -28 3 -19 12 15 15 16 50 1 65 -7 7 -2 12 20 15 28 4
30 2 25 -19 -8 -31 4 -29 16 3 7 18 15 24 26 20 8 -3 13 -2 10 3 -10 15 -75
22 -96 11 -11 -6 -20 -17 -20 -25 0 -20 -9 -19 -29 4 -28 32 -76 32 -84 -1
l-6 -22 -29 27 c-33 32 -91 37 -113 11 -16 -19 -15 -84 1 -114 14 -26 58 -26
109 1 37 19 58 53 52 87 -1 9 6 12 19 10 14 -2 28 -18 40 -45 l19 -43 -30 0
c-18 0 -28 4 -24 10 3 6 -1 10 -10 10 -9 0 -14 -4 -11 -9 3 -5 -2 -12 -12 -16
-12 -6 -6 -10 27 -16 27 -5 51 -4 62 2 11 5 25 7 31 3 18 -11 92 -11 100 0 4
6 16 6 33 -2 31 -14 81 -16 89 -3 6 9 19 9 46 -2 8 -3 26 -7 40 -9 27 -3 28
-6 15 -109 -5 -36 -3 -63 4 -77 9 -18 8 -23 -9 -32 -18 -9 -20 -6 -26 40 -8
58 -35 100 -61 93 -39 -10 -114 -158 -116 -227 l-1 -48 -52 -24 c-65 -30 -298
-91 -379 -99 -138 -14 -313 -10 -410 9 -132 27 -337 91 -343 107 -2 5 -9 9
-16 9 -7 0 -10 13 -8 38 6 75 -91 252 -131 236 -18 -7 -47 -68 -47 -100 0 -21
-4 -25 -18 -20 -14 5 -14 4 2 -9 24 -18 16 -30 -7 -12 -14 10 -16 20 -9 57 10
51 -5 140 -34 205 -25 58 -29 21 -4 -49 23 -68 26 -153 6 -181 -12 -18 -8 -24
47 -70 37 -30 57 -42 52 -30 -14 28 -11 144 4 180 l12 30 36 -55 c65 -102 93
-197 63 -215 -19 -12 -1 -22 97 -58 200 -73 334 -98 531 -98 203 -1 358 28
557 103 82 31 86 34 79 58 -4 14 -7 38 -6 53 1 28 57 142 91 186 l18 24 13
-39 c15 -45 19 -119 7 -151 -12 -33 2 -28 57 21 48 42 49 44 33 67 -23 32 -21
83 4 160 32 98 33 98 64 48 18 -28 30 -64 34 -99 l6 -55 22 36 c12 19 32 44
43 54 l20 18 -24 26 c-34 37 -48 96 -40 180 4 39 4 71 1 71 -3 0 -10 -29 -16
-63z m-241 -83 c0 -17 -26 -19 -33 -1 -3 7 -6 5 -6 -5 -1 -10 5 -18 12 -19 10
0 10 -2 0 -6 -7 -2 -13 -12 -13 -20 0 -13 3 -13 15 -3 18 15 30 7 22 -12 -3
-9 -18 -13 -43 -10 -38 4 -39 4 -39 45 0 40 1 42 35 47 41 7 50 4 50 -16z
m-405 -29 c0 -39 -1 -40 -42 -46 l-41 -5 -4 48 -3 49 45 -3 45 -3 0 -40z m535
24 c17 -31 -10 -66 -55 -71 -20 -2 -38 0 -41 4 -3 4 0 8 5 8 15 0 14 67 -1 73
-7 3 8 6 34 6 38 1 49 -3 58 -20z"/>
<path d="M2300 1035 c0 -22 4 -34 10 -30 6 3 10 17 10 30 0 13 -4 27 -10 30
-6 4 -10 -8 -10 -30z"/>
<path d="M885 1104 c-31 -10 -49 -11 -80 -3 -37 10 -41 9 -62 -16 -19 -22 -22
-34 -17 -63 10 -61 50 -79 90 -41 l22 21 21 -21 c23 -23 89 -29 108 -10 8 8
17 8 33 -1 14 -8 35 -9 59 -4 52 11 54 11 78 1 15 -7 30 -5 51 5 24 13 32 13
47 1 27 -19 112 -17 123 3 8 14 10 14 21 0 21 -25 78 -20 106 8 23 23 25 23
30 5 8 -23 50 -35 69 -20 12 10 36 83 36 109 0 14 -48 32 -87 32 -20 0 -33 -3
-30 -7 4 -3 2 -12 -4 -19 -6 -8 -9 -21 -5 -29 9 -25 -14 -17 -25 9 -16 34 -51
51 -78 37 -15 -8 -27 -9 -40 -1 -27 14 -81 12 -111 -3 -20 -10 -30 -10 -52 0
-20 11 -32 11 -52 2 -19 -9 -36 -9 -71 1 -35 10 -49 10 -58 1 -15 -15 -47 -14
-66 3 -14 12 -22 12 -56 0z m671 -33 c-3 -4 -1 -13 5 -21 6 -11 9 -11 10 -2 3
27 4 31 11 37 4 4 12 4 18 0 7 -4 4 -15 -10 -32 -22 -29 -26 -53 -8 -53 22 0
-2 -13 -27 -15 -19 0 -24 3 -20 16 6 19 -14 69 -27 69 -5 0 -7 4 -4 9 3 4 17
6 31 4 13 -3 23 -8 21 -12z m-726 -6 c0 -18 -26 -20 -33 -2 -3 7 -6 5 -6 -5
-1 -10 6 -18 14 -18 8 0 15 -4 15 -10 0 -5 -7 -10 -15 -10 -8 0 -15 -4 -15
-10 0 -5 5 -10 11 -10 5 0 8 -4 5 -9 -3 -4 -17 -6 -31 -3 -22 4 -25 9 -25 48
l0 44 40 0 c29 0 40 -4 40 -15z m123 1 c3 -7 1 -18 -5 -24 -8 -8 -8 -15 1 -26
12 -15 8 -36 -8 -36 -4 0 -13 10 -20 23 -6 12 -9 14 -7 5 4 -15 -1 -18 -26
-18 -25 0 -29 3 -20 12 15 15 15 51 0 66 -9 9 -2 12 34 12 30 0 48 -5 51 -14z
m127 -1 c0 -18 -12 -19 -28 -3 -9 9 -12 8 -12 -5 0 -9 8 -18 18 -18 16 -1 16
-2 0 -6 -19 -5 -25 -33 -8 -33 6 0 10 5 10 10 0 6 6 10 14 10 9 0 12 -7 10
-17 -4 -13 -15 -18 -42 -18 l-37 0 0 47 0 48 38 0 c26 0 37 -4 37 -15z m108 0
c-2 -5 -10 -9 -18 -8 -8 1 -5 -6 9 -16 32 -24 22 -51 -18 -51 -31 0 -49 14
-31 25 6 4 17 1 25 -5 11 -9 15 -9 15 -1 0 6 -4 11 -9 11 -5 0 -17 7 -26 16
-12 13 -13 19 -4 31 13 15 61 14 57 -2z m157 -33 l0 -47 -50 0 -50 0 0 47 0
48 50 0 50 0 0 -48z m98 41 c-15 -6 -18 -73 -3 -73 6 0 10 5 10 10 0 6 6 10
14 10 9 0 12 -7 9 -18 -3 -13 -14 -18 -41 -17 l-37 0 0 47 c0 47 1 48 30 47
17 0 24 -3 18 -6z"/>
<path d="M2848 1028 c-25 -29 -72 -69 -104 -88 -49 -30 -68 -35 -122 -36 l-63
-1 -45 -51 c-46 -52 -48 -60 -14 -42 22 12 94 26 172 35 68 8 98 24 46 25 -21
0 -38 3 -38 8 0 4 23 18 50 31 53 27 126 89 155 134 31 48 10 40 -37 -15z"/>
<path d="M110 1066 c0 -20 80 -106 122 -131 27 -16 48 -33 48 -37 0 -4 7 -8
15 -8 8 0 15 -4 15 -10 0 -5 -12 -10 -26 -10 -58 0 -8 -18 82 -30 52 -6 111
-18 129 -26 52 -21 52 -18 -1 39 -27 28 -56 51 -64 49 -80 -14 -165 23 -256
109 -35 34 -64 59 -64 55z m320 -196 c3 -1 9 -2 13 -1 5 1 6 -2 3 -7 -6 -10
-86 -3 -86 8 0 7 55 7 70 0z"/>
<path d="M249 832 c13 -25 81 -78 114 -88 12 -4 26 -12 33 -19 7 -6 38 -20 71
-31 57 -19 57 -19 23 -22 -19 -2 -39 -8 -45 -13 -5 -5 40 -9 120 -9 71 0 125
3 119 8 -5 4 -23 19 -39 34 -28 25 -35 27 -65 18 -65 -19 -207 35 -309 118
-32 25 -34 26 -22 4z"/>
<path d="M2685 795 c-95 -69 -210 -104 -270 -83 -15 6 -32 -2 -64 -27 l-44
-35 127 0 c82 0 125 4 121 10 -3 6 -21 10 -38 11 -32 0 -32 0 -7 12 152 68
202 95 235 131 36 39 8 30 -60 -19z"/>
<path d="M2545 629 c-93 -59 -271 -103 -333 -81 -27 9 -39 6 -94 -23 -118 -62
-357 -134 -447 -135 -62 0 -28 -9 99 -24 69 -9 145 -18 170 -22 58 -7 129 -42
153 -75 10 -14 24 -47 32 -75 10 -36 14 -42 15 -24 4 45 -1 64 -26 103 -38 58
-113 88 -253 102 -46 4 -67 14 -35 16 10 1 22 1 27 0 4 0 7 3 7 8 0 5 15 12
33 16 17 3 41 10 52 15 11 4 38 15 60 23 22 9 67 28 100 43 52 25 73 29 155
30 77 1 109 6 168 28 77 29 138 63 146 84 6 15 8 15 -29 -9z"/>
<path d="M455 614 c72 -56 224 -100 317 -91 52 5 69 1 122 -23 99 -45 188 -80
207 -80 10 0 25 -7 33 -16 9 -8 19 -13 24 -10 4 2 14 1 21 -4 13 -7 2 -10
-104 -26 -70 -11 -132 -35 -162 -64 -28 -27 -53 -91 -53 -135 0 -30 17 -5 24
34 12 77 86 133 191 146 28 3 59 8 70 10 11 2 53 7 94 11 41 4 86 10 100 14
l26 8 -28 1 c-93 3 -309 67 -437 130 -67 33 -79 36 -113 27 -55 -14 -163 7
-254 49 -80 37 -111 44 -78 19z"/>
<path d="M1364 351 c-178 -42 -380 -125 -453 -187 -37 -31 -35 -43 4 -18 120
78 333 166 440 181 11 1 46 8 79 15 77 16 189 0 334 -48 111 -36 299 -123 327
-151 9 -8 19 -12 22 -9 18 17 -106 92 -231 141 -224 86 -382 109 -522 76z"/>
</g>
</svg>
