<?xml version="1.0" standalone="no"?>
<!DOCTYPE svg PUBLIC "-//W3C//DTD SVG 20010904//EN"
 "http://www.w3.org/TR/2001/REC-SVG-20010904/DTD/svg10.dtd">
<svg version="1.0" xmlns="http://www.w3.org/2000/svg"
 width="640.000000pt" height="640.000000pt" viewBox="0 0 640.000000 640.000000"
 preserveAspectRatio="xMidYMid meet">

<g transform="translate(0.000000,640.000000) scale(0.100000,-0.100000)"
fill="#000000" stroke="none">
<path d="M0 3200 l0 -3200 3200 0 3200 0 0 3200 0 3200 -3200 0 -3200 0 0
-3200z m5068 2834 c106 -134 141 -296 77 -360 l-23 -23 80 -78 c45 -43 100
-97 123 -120 23 -24 44 -43 47 -43 2 0 2 27 0 60 -6 83 36 290 59 290 14 0 70
-89 106 -167 26 -56 36 -94 40 -148 7 -88 1 -114 -34 -155 -18 -22 -24 -36
-17 -45 5 -7 46 -62 90 -123 l82 -111 12 62 c12 64 56 176 93 236 19 32 21 33
34 15 7 -10 27 -61 45 -114 53 -165 40 -301 -37 -368 l-33 -30 51 -120 51
-120 38 65 c68 117 161 224 178 207 17 -17 24 -205 11 -275 -22 -109 -71 -190
-139 -228 -17 -10 -18 -8 20 -183 l10 -47 87 87 c48 48 110 102 136 121 l48
35 -6 -75 c-8 -96 -42 -221 -75 -283 -33 -61 -94 -124 -139 -142 l-33 -14 0
-118 0 -118 59 57 c63 60 233 179 256 179 10 0 11 -9 4 -39 -21 -92 -64 -211
-99 -271 -59 -101 -108 -144 -210 -183 l-35 -14 -23 -124 c-12 -68 -22 -128
-22 -134 0 -5 24 13 53 41 72 69 197 154 316 214 l44 22 -7 -37 c-11 -58 -98
-234 -149 -300 -48 -63 -123 -126 -172 -145 -16 -6 -55 -12 -87 -13 -52 -1
-58 -4 -58 -22 0 -12 -17 -74 -38 -138 -21 -64 -35 -117 -31 -117 4 0 11 5 14
11 28 45 442 255 463 234 9 -9 -58 -127 -113 -201 -130 -174 -265 -259 -399
-252 l-59 3 -73 -123 c-40 -67 -68 -122 -63 -122 6 0 41 15 77 34 89 45 152
68 304 111 173 48 182 46 131 -17 -195 -243 -445 -379 -613 -334 l-55 14 -25
-31 c-14 -17 -56 -67 -95 -111 -38 -44 -62 -77 -52 -73 59 22 215 58 292 67
50 5 124 14 165 20 41 5 89 9 105 9 l30 0 -45 -41 c-152 -138 -349 -239 -527
-270 -60 -10 -80 -9 -141 6 l-72 17 -79 -68 c-44 -37 -80 -72 -80 -76 -1 -5
13 -5 31 -2 43 10 401 8 463 -3 l50 -8 -89 -48 c-273 -150 -557 -211 -703
-150 -32 14 -36 13 -116 -29 -212 -113 -423 -191 -707 -262 -176 -44 -252 -58
-339 -63 -41 -3 -19 -10 49 -17 36 -3 142 -17 235 -30 94 -13 217 -29 273 -35
102 -11 210 -38 265 -67 44 -22 103 -80 131 -127 27 -46 44 -106 55 -198 l7
-57 -39 32 c-160 130 -394 242 -722 347 -121 38 -360 96 -438 106 -23 2 -64 8
-92 12 -119 18 -498 -65 -790 -174 -256 -94 -477 -210 -562 -294 l-33 -32 0
50 c0 100 57 231 126 292 64 55 207 103 349 114 39 4 151 17 250 31 99 13 207
27 240 31 l60 7 -95 17 c-355 64 -666 165 -935 303 l-105 54 -72 -19 c-111
-29 -258 -12 -438 51 -125 43 -321 144 -307 157 11 12 292 22 402 15 66 -5
122 -7 124 -5 2 1 -14 18 -35 36 -21 18 -56 50 -78 71 -28 28 -45 37 -60 33
-98 -26 -138 -28 -224 -12 -107 21 -256 86 -365 160 -101 69 -174 132 -164
142 4 4 67 0 140 -10 72 -10 139 -18 147 -18 33 1 178 -30 229 -49 29 -11 56
-18 58 -15 4 4 -108 145 -161 203 -8 9 -24 8 -66 -3 -132 -35 -307 35 -477
190 -57 52 -163 176 -163 190 0 12 36 5 176 -35 162 -45 239 -74 319 -117 30
-17 55 -28 55 -25 0 3 -24 44 -53 92 -28 47 -60 102 -70 121 l-17 35 -78 0
c-67 0 -86 4 -144 33 -116 57 -248 199 -331 357 -16 29 -23 53 -18 58 14 14
287 -113 377 -175 43 -29 84 -56 90 -60 7 -5 -4 43 -23 105 -20 61 -39 123
-42 136 -6 21 -14 25 -60 27 -151 8 -295 156 -381 393 -17 45 -30 84 -30 86 0
14 35 0 115 -46 128 -72 200 -124 268 -194 l29 -30 -7 50 c-3 28 -13 89 -22
137 l-16 88 -40 11 c-88 23 -159 91 -220 207 -36 68 -96 267 -84 279 13 12
171 -93 243 -162 84 -81 81 -84 76 68 l-3 97 -38 20 c-89 45 -171 182 -191
320 -19 128 -21 160 -9 160 17 0 172 -134 215 -186 21 -24 41 -41 44 -37 9 10
40 168 40 201 0 12 -4 22 -9 22 -19 0 -82 69 -100 111 -38 86 -53 176 -46 271
3 48 10 99 14 114 l7 27 38 -40 c21 -23 48 -56 61 -75 14 -18 29 -38 34 -45 6
-6 26 -39 45 -74 l34 -62 16 38 c9 20 16 39 16 42 0 2 16 39 36 82 l36 79 -39
39 c-46 46 -63 97 -63 189 0 99 65 315 90 299 31 -19 120 -244 120 -302 0 -20
20 0 93 98 l93 124 -28 33 c-15 18 -31 44 -34 58 -12 48 3 157 30 223 31 72
103 191 117 191 4 0 18 -33 31 -72 16 -54 22 -99 22 -175 1 -57 2 -103 4 -103
2 0 51 47 110 105 60 58 117 111 127 119 19 14 19 15 -7 41 -34 34 -42 70 -29
139 15 83 68 180 153 279 20 24 30 29 38 21 16 -16 25 -228 12 -284 -6 -24 -9
-46 -8 -48 2 -1 45 24 97 57 97 63 129 72 69 19 -92 -81 -112 -100 -108 -103
2 -2 30 3 63 11 67 16 234 24 292 15 l37 -6 -57 -38 c-74 -50 -229 -123 -287
-136 -59 -14 -142 -14 -177 0 -27 11 -31 7 -140 -108 -62 -65 -113 -121 -113
-124 0 -3 24 1 53 9 55 16 339 24 353 9 11 -10 -17 -30 -126 -86 -149 -77
-237 -104 -334 -99 l-80 3 -50 -70 c-70 -98 -136 -198 -132 -202 2 -2 28 8 60
22 93 41 356 75 356 46 0 -5 -36 -37 -80 -70 -165 -124 -279 -175 -381 -170
l-51 3 -35 -75 c-19 -40 -43 -96 -54 -122 -20 -50 -19 -51 32 -16 60 42 308
114 326 95 9 -9 -95 -133 -168 -200 -84 -77 -174 -126 -234 -126 l-42 0 -22
-116 c-12 -64 -20 -118 -18 -120 2 -2 24 11 48 29 59 46 137 84 238 118 47 16
86 29 88 29 19 0 -128 -226 -189 -291 -44 -47 -131 -102 -180 -113 l-28 -6 0
-113 c0 -61 3 -128 6 -147 l6 -36 67 66 c62 61 123 102 249 165 86 43 90 33
36 -89 -46 -101 -110 -200 -160 -248 -43 -40 -109 -78 -137 -78 -10 0 -20 -6
-23 -14 -6 -17 11 -172 28 -249 l11 -52 15 25 c17 27 124 136 158 160 60 43
181 107 189 99 8 -8 -58 -205 -95 -283 -40 -84 -119 -166 -178 -185 -23 -8
-42 -19 -42 -25 0 -21 72 -236 79 -236 4 0 13 16 20 35 19 53 94 147 158 199
73 58 72 58 107 80 l29 18 -7 -100 c-7 -116 -44 -255 -85 -322 -25 -41 -91
-101 -123 -113 -14 -5 18 -77 72 -163 l26 -42 18 68 c20 80 85 178 166 254
l53 50 9 -25 c5 -13 12 -92 15 -175 5 -136 4 -158 -16 -222 -17 -56 -31 -81
-62 -111 -43 -41 -43 -55 -6 -93 7 -7 19 -22 27 -34 28 -40 93 -114 100 -114
4 0 9 33 12 74 5 83 42 173 105 258 l36 50 13 -25 c16 -30 55 -147 84 -251 32
-115 26 -209 -17 -269 l-31 -44 74 -63 c81 -69 143 -114 150 -108 2 3 -1 20
-6 39 -14 49 -12 196 4 254 21 78 44 127 58 123 17 -6 111 -146 153 -229 75
-146 90 -241 53 -317 -15 -30 -15 -32 7 -46 13 -9 86 -38 162 -66 76 -28 154
-57 173 -64 93 -36 496 -130 600 -141 30 -3 96 -10 145 -15 115 -13 415 -13
525 0 47 5 111 12 143 15 66 6 333 64 447 96 170 49 381 124 461 164 49 25 49
26 35 53 -25 48 -29 96 -13 158 18 71 67 179 115 254 80 124 97 149 103 150
12 0 49 -98 64 -170 19 -89 19 -130 0 -200 -8 -30 -15 -59 -15 -63 0 -11 66
37 157 114 l72 61 -23 32 c-52 68 -58 154 -20 295 26 99 84 261 94 261 6 -1
57 -78 94 -143 29 -51 60 -195 51 -231 -7 -25 65 49 130 135 l45 59 -40 36
c-57 52 -82 124 -87 254 -2 60 2 144 10 195 l14 90 79 -80 c83 -85 125 -154
146 -241 l12 -51 21 31 c23 34 95 164 95 171 0 3 -6 5 -14 5 -22 0 -102 66
-123 103 -53 88 -105 322 -94 420 2 16 154 -99 205 -154 28 -30 65 -83 82
-117 l30 -62 39 117 c21 65 40 123 42 129 2 6 -2 11 -9 11 -27 0 -91 37 -133
78 -26 26 -59 75 -83 126 -45 93 -100 265 -88 276 11 12 134 -61 239 -141 21
-16 56 -54 77 -83 21 -30 41 -50 43 -46 4 7 30 182 40 276 1 13 -11 22 -49 36
-71 24 -95 42 -154 112 -48 57 -140 231 -155 292 -10 37 5 35 96 -11 108 -55
179 -105 237 -166 62 -65 62 -65 62 116 l0 127 -38 10 c-109 30 -237 163 -326
340 l-28 54 42 -7 c56 -9 222 -88 285 -135 l52 -40 -13 72 c-8 40 -20 95 -27
122 l-12 50 -53 6 c-72 9 -149 57 -247 154 -78 78 -145 156 -145 170 0 28 264
-50 344 -102 33 -22 38 -23 31 -7 -4 11 -16 41 -27 67 -10 27 -32 74 -47 106
-29 56 -30 57 -67 53 -56 -7 -141 16 -222 59 -73 39 -251 167 -252 182 0 11
121 9 203 -4 40 -6 100 -22 135 -36 35 -14 66 -22 69 -19 6 5 -55 100 -142
222 l-29 40 -81 -4 c-68 -4 -92 0 -160 23 -87 30 -187 78 -261 124 -41 26 -44
32 -28 38 10 5 80 8 154 7 119 0 175 -8 238 -31 17 -7 -64 89 -163 194 -50 52
-51 53 -84 42 -20 -7 -64 -10 -111 -6 -63 4 -96 13 -171 47 -99 44 -229 119
-229 132 0 18 248 12 324 -8 32 -8 60 -13 62 -11 2 2 -30 32 -71 68 -67 56
-87 79 -70 79 10 0 139 -83 162 -103 29 -26 38 -17 24 24 -14 41 -14 193 0
260 l12 53 31 -36 c17 -19 41 -49 54 -64z m-1706 -349 c5 -42 3 -45 -34 -45
-24 0 -28 -4 -28 -29 0 -25 4 -30 28 -33 23 -3 27 -8 30 -40 3 -36 2 -38 -27
-38 -29 0 -31 -2 -31 -40 0 -39 1 -40 36 -40 35 0 35 -1 32 -37 l-3 -38 -75 0
-75 0 -3 175 c-1 96 0 180 2 187 4 9 27 13 75 13 l69 0 4 -35z m-408 8 c-2
-10 -14 -63 -28 -118 -13 -55 -29 -128 -36 -163 -15 -71 -30 -92 -66 -92 -31
0 -31 2 12 189 46 203 46 201 88 201 27 0 33 -3 30 -17z m-176 -19 c31 -22 42
-53 43 -130 1 -55 -2 -69 -21 -89 -25 -27 -76 -33 -110 -15 -26 14 -40 63 -40
141 0 61 3 70 26 88 32 25 71 27 102 5z m1138 -26 c-3 -24 -10 -99 -16 -168
-16 -177 -12 -166 -61 -162 l-41 4 6 42 c3 22 10 95 16 161 16 172 13 165 61
165 l41 0 -6 -42z m-1305 -13 c24 -41 53 -244 40 -277 -15 -39 -49 -58 -103
-58 -36 0 -52 5 -68 22 -11 12 -20 27 -21 32 0 6 -9 -8 -19 -31 -15 -34 -26
-44 -59 -54 -48 -14 -91 -1 -115 36 -17 26 -46 178 -46 241 0 56 24 84 77 91
94 13 115 -13 137 -167 7 -52 14 -80 15 -62 0 18 -4 64 -10 103 -16 104 5 149
76 161 41 7 79 -7 96 -37z m927 25 l53 1 -6 -133 c-3 -73 -8 -148 -11 -166 -7
-48 -41 -65 -114 -60 -68 5 -91 19 -74 46 9 13 22 16 56 14 34 -3 47 1 51 13
5 13 3 14 -13 5 -26 -14 -68 -2 -81 22 -6 11 -11 66 -10 122 1 96 2 102 27
124 19 17 33 21 48 17 12 -4 45 -6 74 -5z m266 -22 c2 -2 -3 -73 -10 -157 -11
-140 -14 -157 -34 -173 -39 -31 -170 -18 -170 17 0 26 29 39 57 26 21 -10 29
-9 41 3 13 13 11 15 -18 14 -24 -1 -39 6 -53 23 -17 22 -19 34 -12 124 10 140
8 138 112 132 47 -3 86 -7 87 -9z m293 -43 c24 -27 29 -65 17 -124 l-6 -31
-54 6 -54 7 0 -42 c0 -48 15 -55 24 -11 5 30 7 31 43 24 21 -4 40 -10 43 -13
3 -3 13 -6 23 -7 65 -3 64 -2 59 -35 -4 -24 -1 -30 9 -27 27 9 20 40 -20 83
-35 38 -41 51 -41 88 0 57 26 82 84 82 63 0 96 -26 96 -75 0 -31 -4 -40 -17
-40 -38 0 -63 13 -63 31 0 11 -4 19 -10 19 -20 0 -9 -24 30 -66 36 -39 40 -49
40 -94 0 -78 -50 -115 -124 -90 -43 14 -66 43 -67 85 l-1 30 -12 -35 c-30 -83
-161 -80 -182 4 -3 13 -1 66 5 118 10 85 14 95 43 122 26 24 37 27 72 23 27
-4 49 -15 63 -32z m-1902 -22 c4 -27 18 -101 31 -166 32 -154 32 -153 -12
-162 -20 -3 -38 -5 -39 -3 -3 3 -55 243 -55 253 0 1 -10 1 -22 1 -51 -2 -16
94 42 117 39 15 49 8 55 -40z m869 4 c32 -23 48 -151 24 -201 -20 -46 -99 -53
-134 -13 -29 34 -41 145 -19 186 8 16 23 32 32 34 36 9 80 7 97 -6z m1411 -21
c38 -16 53 -38 53 -78 0 -24 -5 -28 -28 -28 -41 0 -60 10 -60 31 0 10 -4 19
-10 19 -5 0 -10 -9 -10 -20 0 -11 4 -20 10 -20 5 0 23 -19 40 -42 73 -101 8
-205 -105 -168 -37 12 -55 40 -55 83 0 39 14 50 54 43 33 -6 35 -9 29 -38 -5
-24 -3 -30 8 -26 26 9 20 34 -21 85 -31 40 -40 59 -40 90 0 70 60 100 135 69z
m-1096 -760 c14 -16 1 -51 -20 -58 -7 -2 8 -19 32 -37 39 -29 50 -32 93 -28
39 3 55 11 73 32 17 20 35 28 66 31 40 3 41 3 15 -8 -16 -7 -28 -15 -28 -20 0
-4 -7 -8 -16 -8 -9 0 -29 -11 -46 -25 -44 -38 -97 -34 -155 10 -42 32 -83 46
-83 27 0 -4 -14 -16 -32 -26 -29 -18 -30 -20 -13 -32 18 -13 18 -14 -3 -14
-11 0 -27 8 -34 18 -17 23 -68 29 -68 8 0 -8 12 -23 26 -33 14 -10 35 -28 47
-40 11 -13 26 -23 33 -23 46 0 3 -88 -55 -114 -89 -41 -185 -8 -220 75 -12 26
-21 55 -21 63 0 28 44 125 60 130 8 2 34 12 57 20 49 18 76 12 68 -15 -6 -17
-4 -17 20 -5 17 9 38 11 65 6 44 -8 50 -5 50 23 0 46 62 75 89 43z m916 -33
c-45 -45 -76 -93 -123 -188 -19 -38 -44 -83 -55 -99 -20 -28 -20 -31 -4 -76
30 -83 22 -106 -75 -233 l-59 -77 21 -31 c21 -28 21 -31 5 -43 -15 -11 -15
-13 -1 -25 9 -8 16 -27 15 -45 l-1 -31 -13 30 c-7 17 -11 33 -8 38 9 16 -29
19 -46 3 -10 -9 -23 -16 -29 -16 -10 0 -43 -60 -37 -68 6 -7 55 19 74 39 12
13 21 18 21 11 0 -18 -39 -49 -96 -76 -30 -14 -54 -30 -54 -34 0 -8 125 30
137 42 12 12 23 6 23 -14 0 -22 -34 -45 -52 -34 -7 5 -8 3 -3 -5 4 -8 -12 -30
-45 -62 -41 -39 -46 -47 -25 -39 39 15 41 12 10 -11 -14 -12 -36 -23 -48 -24
-12 -1 -27 -3 -34 -4 -6 0 -18 -7 -25 -14 -31 -29 -99 -67 -148 -81 -65 -19
-96 -20 -55 -1 29 13 29 13 -20 9 -27 -3 -61 -8 -75 -11 -25 -6 -25 -6 5 -14
17 -5 36 -7 43 -4 7 3 10 1 7 -5 -10 -16 68 -23 130 -11 79 16 155 41 155 51
0 4 15 11 33 14 19 3 54 23 78 43 24 21 35 27 24 14 -15 -17 -16 -24 -6 -30 9
-6 4 -8 -13 -8 -15 0 -37 -10 -49 -21 -12 -11 -38 -27 -57 -34 -33 -14 -30
-14 70 -15 89 -1 110 2 140 19 l35 20 -19 -21 -19 -21 89 0 c49 0 107 -5 129
-11 69 -18 144 -52 150 -67 4 -12 0 -11 -20 2 -61 40 -251 77 -312 61 l-28 -7
24 -9 c13 -5 21 -12 18 -15 -3 -4 -25 1 -48 10 -40 16 -42 16 -61 -3 -22 -25
-122 -101 -131 -101 -19 0 -1 19 49 50 36 22 50 36 40 38 -9 2 -14 8 -10 13 3
6 -4 7 -18 4 -12 -3 -63 -10 -113 -15 -49 -6 -109 -13 -132 -16 -24 -3 -43 -2
-43 3 0 13 -53 8 -58 -6 -3 -8 4 -10 22 -5 46 11 28 -11 -24 -30 -28 -10 -49
-20 -47 -23 15 -14 298 41 348 67 10 6 26 10 35 10 63 0 -134 -78 -216 -85
-30 -3 -71 -8 -90 -11 l-35 -7 35 -12 c51 -19 71 -18 126 10 57 29 61 30 44
10 -14 -16 -3 -20 19 -6 7 5 10 14 7 20 -10 15 5 13 28 -4 18 -14 18 -15 -5
-24 -13 -5 -40 -15 -59 -23 l-35 -15 70 -9 c151 -19 382 -6 550 31 11 3 6 -1
-10 -9 -17 -8 -73 -22 -124 -31 -80 -15 -127 -17 -310 -11 -119 4 -231 9 -250
10 -19 2 -46 -3 -60 -10 -34 -17 -146 -40 -238 -49 -64 -6 -73 -5 -92 14 -12
12 -31 20 -43 20 l-23 -2 23 -4 c12 -2 20 -9 17 -14 -8 -12 -55 -12 -55 1 0 6
-7 10 -15 10 -8 0 -15 -4 -15 -8 0 -5 -15 -7 -32 -5 -32 4 -32 4 -13 -13 18
-15 18 -16 2 -10 -10 3 -23 6 -28 6 -6 0 -7 5 -3 12 5 8 2 9 -9 5 -9 -3 -19
-2 -22 3 -8 13 -35 13 -35 1 0 -5 8 -12 18 -14 9 -3 -8 -3 -38 0 -30 3 -95 18
-145 35 -79 26 -100 29 -170 24 -86 -5 -115 -10 -184 -32 -24 -8 -46 -13 -48
-10 -10 10 168 58 257 69 24 3 24 4 -5 12 -16 5 -36 14 -43 22 -7 7 -21 13
-30 13 -15 0 -15 2 -2 11 12 8 7 9 -17 6 -18 -2 -33 0 -33 5 0 4 -19 17 -42
29 -23 12 -54 31 -69 41 -15 11 -32 17 -38 14 -6 -4 -11 -3 -11 1 0 5 -29 24
-65 42 -54 28 -72 33 -108 28 -23 -3 -62 -9 -87 -12 l-45 -5 45 15 c25 8 55
15 68 15 31 0 28 12 -9 33 -38 21 -52 21 -87 1 -25 -15 -25 -14 4 12 l31 29
-26 26 c-43 43 -113 95 -161 120 -35 18 -61 23 -118 23 -82 0 -65 14 21 18 70
3 140 -31 240 -116 63 -54 84 -66 112 -66 38 0 44 20 10 32 -16 5 -15 6 8 7
16 1 43 -5 60 -13 36 -16 88 -30 100 -27 4 1 44 -17 89 -39 66 -32 92 -40 138
-40 32 0 86 -10 126 -23 38 -13 104 -32 146 -42 42 -10 75 -21 73 -24 -1 -3 9
-6 23 -7 15 -1 54 -5 87 -9 l60 -8 -65 -13 c-36 -7 -99 -14 -140 -15 -67 -1
-71 -2 -40 -11 19 -5 58 -16 86 -24 54 -16 74 -15 87 1 4 7 10 6 15 -2 17 -26
194 -41 287 -25 l40 7 -45 17 c-25 9 -56 20 -70 24 -14 3 -34 13 -45 21 -18
13 -16 14 31 12 27 -2 54 0 60 3 5 3 41 8 80 12 130 12 156 29 64 41 -27 3
-48 1 -58 -7 -10 -9 -59 -13 -161 -13 -125 1 -163 5 -261 28 -235 57 -247 61
-220 68 22 6 23 7 7 14 -15 6 -16 10 -5 16 7 5 22 8 33 8 l20 0 -20 -10 c-17
-8 -16 -9 7 -4 31 6 90 -4 83 -15 -2 -3 -19 -5 -37 -4 -18 2 12 -8 67 -21 62
-16 101 -22 103 -15 5 14 29 13 36 -2 5 -10 7 -10 12 -1 4 9 11 10 24 3 10 -5
26 -7 34 -4 9 3 16 1 16 -5 0 -7 11 -9 28 -6 20 4 22 3 8 -3 -15 -7 -17 -10
-6 -17 8 -5 18 0 29 13 11 14 25 20 43 18 54 -6 17 12 -49 24 -38 7 -77 14
-88 17 -11 2 -77 12 -146 23 -69 10 -146 24 -172 30 -53 12 -108 4 -85 -12 10
-7 8 -8 -5 -4 -10 3 -23 6 -28 6 -6 0 -7 5 -4 10 3 6 -1 10 -9 10 -9 0 -16 -4
-16 -9 0 -6 -13 -6 -32 0 -18 6 -52 12 -75 13 -50 3 -70 16 -27 17 28 1 28 1
-6 10 -19 5 -55 13 -80 18 -25 5 -54 13 -65 17 -19 6 -19 5 1 -9 12 -9 40 -21
63 -26 58 -13 64 -23 12 -16 -53 7 -76 18 -119 58 -31 30 -41 60 -24 71 11 6
34 -9 31 -20 -7 -20 113 -57 221 -69 50 -5 53 -5 36 9 -10 8 -38 18 -62 22
-31 4 -41 10 -37 20 3 8 0 14 -6 14 -6 0 -11 -4 -11 -9 0 -17 -32 -21 -60 -6
-16 8 -39 15 -52 15 -17 0 -19 3 -10 9 21 13 -23 50 -50 43 -16 -4 -19 -2 -12
9 21 34 7 99 -21 99 -8 0 -15 4 -15 9 0 5 -8 12 -18 15 -44 14 -153 146 -151
183 0 14 4 12 12 -7 31 -66 70 -108 149 -162 34 -23 42 -25 54 -13 16 16 19
45 4 45 -5 0 -10 -4 -10 -10 0 -5 -5 -10 -12 -10 -6 0 -4 7 5 18 10 10 14 22
10 27 -5 4 -1 5 7 3 8 -3 42 9 75 28 60 33 91 40 198 50 38 4 57 2 57 -6 0
-13 -41 -29 -72 -28 -13 1 -45 0 -73 -1 -40 -2 -45 -4 -25 -10 14 -4 53 -6 86
-3 34 2 69 0 79 -5 12 -7 -5 -11 -67 -16 -45 -3 -92 -9 -102 -13 -14 -5 -17
-4 -11 5 6 10 -2 12 -36 6 -51 -8 -59 -12 -59 -27 0 -5 7 -8 15 -4 9 3 15 0
15 -9 0 -9 53 -41 134 -81 132 -65 134 -65 175 -53 63 19 117 78 141 156 26
86 27 133 1 133 -25 0 -45 59 -38 112 5 37 44 108 60 108 4 0 7 -14 7 -30 0
-51 26 -100 52 -100 13 0 29 5 36 12 17 17 15 -4 -3 -28 -21 -28 -19 -32 20
-40 49 -9 44 -26 -5 -18 l-40 7 0 -38 c0 -36 1 -37 30 -33 20 3 30 0 30 -9 0
-8 -12 -13 -30 -13 -23 0 -30 -4 -30 -20 0 -16 7 -20 35 -20 19 0 35 -4 35
-10 0 -5 -16 -10 -35 -10 -40 0 -39 5 -24 -96 10 -67 10 -80 -5 -104 l-16 -28
72 -7 c66 -5 253 6 263 16 9 9 -15 84 -30 95 -13 10 -14 17 -6 32 25 46 29
102 14 160 -18 63 -33 88 -33 54 0 -28 -20 -70 -36 -76 -28 -11 -44 57 -22 93
19 30 -5 51 -58 51 -40 0 -44 2 -44 25 0 29 21 75 43 93 12 11 16 7 21 -22 4
-21 19 -45 38 -61 26 -22 37 -25 70 -20 41 7 49 -5 28 -46 -9 -16 -7 -19 12
-20 13 0 48 -4 78 -8 50 -7 52 -7 32 7 -27 18 -29 36 -3 27 10 -3 30 0 44 6
21 9 28 23 38 75 7 35 16 64 20 64 4 0 20 -15 36 -33 42 -48 76 -56 205 -53
115 4 138 9 217 48 76 39 123 138 122 255 l-1 71 37 19 c21 10 50 36 64 58 27
39 28 40 101 46 40 3 79 6 87 7 8 1 -3 -15 -24 -35z m-306 -139 c-19 -19 -44
-37 -56 -40 -13 -4 -23 -13 -23 -21 0 -23 -24 -41 -65 -49 -46 -8 -41 11 5 21
19 4 32 15 36 28 3 13 25 31 54 46 28 13 53 34 60 50 8 17 14 21 17 13 3 -8
-10 -29 -28 -48z m-1209 -361 c0 -26 -1 -26 -14 -8 -14 20 -12 35 5 35 5 0 9
-12 9 -27z m-46 -8 c-5 -21 -3 -25 16 -25 11 0 18 -4 15 -10 -8 -13 -42 -13
-51 1 -3 6 -1 22 7 35 16 31 21 31 13 -1z m-64 11 c0 -3 -4 -8 -10 -11 -5 -3
-10 -1 -10 4 0 6 5 11 10 11 6 0 10 -2 10 -4z m300 -66 c0 -5 -7 -10 -16 -10
-8 0 -12 5 -9 10 3 6 10 10 16 10 5 0 9 -4 9 -10z m-540 -124 c0 -3 -4 -8 -10
-11 -5 -3 -10 -1 -10 4 0 6 5 11 10 11 6 0 10 -2 10 -4z m1717 -58 c-13 -18
-46 -55 -72 -82 l-47 -48 70 7 c90 9 245 -11 292 -37 19 -10 26 -16 15 -13
-117 38 -280 41 -388 9 -15 -5 -17 -1 -11 23 4 15 11 31 17 34 24 16 137 133
137 142 0 6 3 7 6 4 4 -4 -5 -21 -19 -39z m-1949 -163 c23 -10 49 -18 57 -18
8 0 15 -8 15 -18 0 -15 -4 -16 -32 -6 -18 7 -35 14 -38 17 -3 3 -31 22 -62 43
-64 41 -80 61 -20 24 20 -12 56 -31 80 -42z m1952 -52 c-74 -29 -214 -73 -217
-69 -5 5 58 41 68 39 3 -1 32 7 65 17 53 17 123 28 84 13z m-1393 -129 c-3 -3
-12 -4 -19 -1 -8 3 -5 6 6 6 11 1 17 -2 13 -5z m204 -44 c5 0 9 -4 9 -9 0 -12
-38 -2 -47 12 -4 7 0 8 11 4 10 -4 22 -7 27 -7z m59 -14 c0 -11 -19 -15 -25
-6 -3 5 1 10 9 10 9 0 16 -2 16 -4z m744 -4 c2 -4 -5 -9 -17 -9 -17 -2 -19 0
-7 7 18 12 18 12 24 2z m-534 -142 c-8 -5 -24 -10 -35 -10 -17 0 -17 2 -5 10
8 5 24 10 35 10 17 0 17 -2 5 -10z m-60 -10 c0 -5 -12 -10 -27 -9 -25 0 -26 1
-8 9 27 12 35 12 35 0z m-60 -10 c0 -5 -4 -10 -10 -10 -5 0 -10 5 -10 10 0 6
5 10 10 10 6 0 10 -4 10 -10z m-600 -10 c-8 -5 -19 -10 -25 -10 -5 0 -3 5 5
10 8 5 20 10 25 10 6 0 3 -5 -5 -10z m405 -160 c3 -5 -1 -10 -9 -10 -9 0 -16
5 -16 10 0 6 4 10 9 10 6 0 13 -4 16 -10z m48 3 c-7 -2 -19 -2 -25 0 -7 3 -2
5 12 5 14 0 19 -2 13 -5z m247 -29 l35 -14 -35 6 c-19 3 -39 10 -44 15 -14 13
2 10 44 -7z m94 -23 c3 -4 -6 -6 -19 -3 -14 2 -25 6 -25 8 0 8 39 4 44 -5z
m-1746 -246 c17 -10 35 -29 41 -42 13 -29 14 -83 2 -115 -6 -17 -5 -29 5 -43
8 -11 14 -43 14 -76 0 -49 -4 -61 -28 -87 -34 -36 -69 -44 -177 -40 l-80 3 -3
199 c-2 147 1 202 10 213 18 22 173 13 216 -12z m360 -95 c24 -63 57 -147 73
-187 16 -39 29 -83 29 -97 0 -22 -4 -26 -30 -26 -25 0 -33 6 -47 35 l-17 35
-73 0 -73 0 -17 -35 c-14 -30 -22 -35 -50 -35 -23 0 -33 5 -33 15 0 28 130
399 142 407 36 23 52 4 96 -112z m238 107 c3 -8 8 -42 12 -77 l7 -63 60 71
c59 70 90 90 120 78 26 -10 16 -39 -35 -105 -28 -36 -50 -67 -50 -71 0 -3 6
-14 14 -25 21 -31 106 -202 106 -214 0 -6 -17 -11 -39 -11 l-40 0 -47 95 c-26
52 -51 95 -55 95 -19 0 -34 -40 -39 -109 l-5 -76 -35 0 -35 0 -3 199 c-2 138
1 203 9 212 15 18 48 18 55 1z m557 5 c4 -1 7 -17 7 -36 0 -42 -10 -46 -105
-46 l-72 0 -7 -31 c-11 -56 -9 -59 38 -59 24 0 58 -3 75 -6 29 -6 32 -10 29
-38 l-3 -31 -72 -3 -73 -3 0 -44 0 -45 79 0 c87 0 115 -14 109 -54 -3 -20 -9
-21 -117 -24 -75 -2 -118 1 -127 9 -11 9 -14 52 -14 209 0 108 2 199 5 202 4
4 226 4 248 0z m324 -16 c68 -35 79 -132 22 -192 l-30 -31 36 -78 c44 -98 44
-105 -1 -105 -34 0 -36 2 -71 78 -40 85 -47 93 -83 90 -24 -3 -25 -7 -30 -83
l-5 -80 -35 0 -35 0 -1 195 c0 107 4 204 9 214 8 17 18 18 102 13 53 -3 105
-12 122 -21z m206 -12 c11 -39 -23 -127 -46 -119 -17 7 -37 62 -37 103 0 58
68 71 83 16z m268 25 c21 -7 48 -22 59 -34 19 -20 20 -26 8 -45 -14 -23 -37
-23 -94 0 -38 16 -81 6 -89 -21 -10 -30 16 -53 83 -73 91 -28 122 -64 122
-143 0 -102 -167 -148 -264 -72 -31 24 -33 49 -7 73 19 17 21 17 58 -8 59 -40
133 -31 133 18 0 25 -14 34 -101 66 -72 26 -104 59 -104 108 0 55 22 96 63
120 42 24 77 27 133 11z m385 3 c6 -4 44 -61 85 -127 l74 -119 3 117 c2 103 5
118 22 127 23 12 48 4 52 -17 2 -9 1 -102 -2 -207 l-5 -191 -26 -3 c-19 -2
-33 5 -49 25 -31 39 -109 165 -116 186 -14 45 -24 7 -24 -97 0 -107 -1 -114
-21 -119 -48 -13 -49 -9 -49 219 l0 214 23 0 c12 0 27 -4 33 -8z m597 -1 c9
-1 9 -43 1 -65 -5 -13 -23 -16 -94 -16 -95 0 -99 -3 -100 -67 0 -21 5 -23 53
-23 73 0 94 -8 100 -35 6 -36 -11 -45 -85 -45 l-68 0 0 -45 0 -45 85 0 c81 0
86 -1 97 -24 22 -49 8 -56 -107 -56 -59 0 -115 5 -126 10 -18 10 -19 23 -19
209 0 109 2 200 5 203 5 4 235 4 258 -1z m307 -21 c34 -24 40 -63 13 -79 -12
-6 -28 -4 -55 10 -63 32 -123 16 -116 -32 2 -17 17 -27 68 -46 36 -13 76 -29
88 -35 56 -29 71 -136 26 -182 -51 -50 -158 -56 -225 -11 -42 27 -48 48 -22
77 21 24 29 23 65 -7 37 -31 90 -33 118 -5 11 11 17 26 14 34 -5 14 -75 48
-124 61 -109 28 -121 172 -19 224 53 27 124 23 169 -9z m354 24 c19 -7 21 -55
4 -72 -7 -7 -29 -12 -50 -12 l-38 0 -2 -167 -3 -168 -31 -3 c-28 -3 -32 0 -38
29 -3 17 -6 94 -6 170 0 137 0 139 -22 139 -52 0 -68 11 -68 44 0 18 3 36 7
39 8 9 226 9 247 1z m-3396 -736 c3 -33 0 -38 -17 -38 -14 0 -23 9 -27 25 -10
39 -34 31 -34 -10 0 -32 2 -35 30 -35 20 0 30 -5 30 -15 0 -10 -10 -15 -30
-15 -23 0 -30 -4 -30 -20 0 -11 7 -23 15 -26 8 -4 15 -12 15 -19 0 -8 -16 -11
-52 -10 l-52 2 3 83 c2 57 -1 85 -9 90 -7 4 -9 13 -5 19 4 8 33 11 83 9 l77
-3 3 -37z m254 30 c27 -21 30 -53 9 -80 l-20 -25 30 -36 c29 -35 29 -36 10
-46 -34 -19 -48 -12 -75 32 -19 31 -25 37 -26 22 0 -12 5 -26 12 -33 6 -6 10
-14 7 -16 -5 -5 -54 -9 -94 -7 -27 2 -28 3 -12 15 23 18 25 137 2 156 -8 7
-15 16 -15 21 0 14 154 11 172 -3z m286 -25 c-3 -44 -27 -52 -43 -15 -14 32
-35 28 -35 -8 0 -27 3 -30 31 -30 38 0 35 -24 -4 -28 -22 -3 -27 -8 -27 -33 0
-38 35 -41 44 -4 4 16 13 25 26 25 16 0 20 -7 20 -34 0 -42 -8 -45 -99 -41
-70 3 -100 13 -73 22 15 6 17 153 2 153 -5 0 -10 7 -10 15 0 12 16 15 86 15
l85 0 -3 -37z m241 16 c20 -22 20 -22 -2 -40 -21 -17 -23 -17 -44 3 -13 12
-23 16 -23 10 0 -7 18 -23 39 -36 48 -30 55 -41 47 -69 -7 -28 -31 -43 -81
-51 -32 -5 -45 -2 -65 14 l-25 20 24 20 24 21 22 -21 c22 -21 35 -25 35 -12 0
5 -20 22 -45 40 -60 42 -62 88 -5 111 41 16 78 12 99 -10z m336 11 c3 -5 1
-11 -5 -15 -14 -8 -13 -138 1 -152 22 -22 -2 -28 -110 -27 -100 0 -147 9 -113
21 15 6 17 149 2 158 -26 16 9 24 110 24 60 0 112 -4 115 -9z m205 -5 c0 -8
-4 -15 -10 -15 -6 0 -10 -32 -10 -75 0 -60 3 -75 15 -75 8 0 17 11 21 25 9 36
44 34 44 -2 0 -16 -4 -33 -8 -39 -10 -15 -164 -12 -169 4 -3 6 0 12 6 12 7 0
11 28 11 75 0 43 -4 75 -10 75 -5 0 -10 7 -10 15 0 12 13 15 60 15 47 0 60 -3
60 -15z m246 3 c4 -6 2 -14 -4 -16 -8 -2 -7 -12 4 -34 l16 -30 14 28 c11 20
12 29 3 35 -19 11 0 29 32 29 19 0 29 -5 29 -15 0 -8 -4 -15 -8 -15 -4 0 -18
-20 -30 -45 -23 -48 -29 -105 -11 -105 6 0 9 -5 7 -11 -2 -7 -25 -11 -56 -11
-70 1 -68 0 -54 14 7 7 12 25 12 41 0 31 -36 106 -58 120 -7 5 -10 12 -7 18 9
13 102 11 111 -3z m534 -8 c26 -26 25 -45 -2 -64 -18 -13 -19 -16 -6 -16 17 0
36 -24 36 -45 1 -5 -9 -20 -20 -32 -19 -20 -31 -23 -107 -23 -66 0 -82 3 -73
12 15 15 16 154 2 163 -24 15 6 25 76 25 61 0 78 -4 94 -20z m248 -5 c7 -14
12 -32 12 -39 0 -7 13 -40 30 -72 16 -32 28 -59 27 -60 -1 -1 -26 -4 -56 -5
-36 -2 -56 1 -59 9 -2 7 1 12 7 12 6 0 11 7 11 15 0 10 -10 15 -29 15 -31 0
-49 -14 -31 -25 20 -13 9 -25 -23 -25 l-33 0 32 68 c22 45 31 76 27 94 -4 22
-1 27 18 31 48 9 56 7 67 -18z m262 16 c0 -6 -4 -13 -10 -16 -12 -8 -13 -65
-1 -65 14 0 46 53 43 73 -3 13 4 17 27 17 21 0 31 -5 31 -15 0 -8 -4 -15 -9
-15 -5 0 -19 -14 -31 -30 l-22 -31 36 -39 c42 -47 45 -67 11 -76 -19 -5 -30 0
-45 17 -10 13 -19 29 -20 35 0 6 -6 17 -14 23 -11 9 -13 6 -13 -14 0 -14 3
-25 8 -25 5 0 9 -7 9 -15 0 -12 -13 -15 -55 -15 -51 0 -69 10 -45 25 6 3 10
37 10 76 0 39 -4 69 -10 69 -5 0 -10 7 -10 15 0 12 13 15 55 15 30 0 55 -4 55
-9z m350 -32 c0 -33 -3 -40 -17 -37 -10 2 -22 13 -28 26 -14 31 -30 27 -33 -8
-2 -27 0 -30 28 -30 39 0 41 -27 3 -32 -22 -2 -28 -8 -28 -27 0 -34 22 -38 36
-7 7 14 20 26 31 26 14 0 18 -8 18 -34 0 -42 -10 -46 -105 -41 -86 4 -81 3
-67 17 16 16 16 155 0 160 -6 2 -8 10 -4 16 5 8 36 12 87 12 l79 0 0 -41z
m275 16 c29 -37 36 -66 25 -101 -17 -51 -54 -72 -133 -75 -73 -3 -85 2 -62 21
21 17 21 133 0 150 -31 26 -15 32 70 29 70 -3 87 -7 100 -24z"/>
<path d="M2722 5564 c2 -44 7 -69 16 -72 10 -3 12 12 10 64 -2 44 -7 69 -16
72 -10 3 -12 -12 -10 -64z"/>
<path d="M2525 5588 c-4 -10 -2 -57 5 -105 14 -109 17 -120 31 -106 8 8 7 38
-1 104 -13 104 -24 136 -35 107z"/>
<path d="M2315 5500 c9 -111 22 -167 36 -153 13 13 -11 189 -28 211 -12 15
-13 6 -8 -58z"/>
<path d="M3476 5585 c-3 -9 -6 -46 -6 -82 0 -47 3 -64 13 -61 7 3 13 29 15 73
3 66 -9 104 -22 70z"/>
<path d="M3697 5583 c-2 -4 -8 -41 -11 -82 -6 -58 -5 -72 6 -69 16 6 33 137
19 151 -5 5 -11 5 -14 0z"/>
<path d="M4010 5536 c-13 -35 -13 -36 4 -36 19 0 31 39 17 53 -7 7 -13 2 -21
-17z"/>
<path d="M2999 5536 c-2 -2 -2 -34 -1 -70 3 -50 7 -66 18 -66 12 0 14 14 12
67 -3 58 -14 84 -29 69z"/>
<path d="M3317 4783 c-12 -12 -7 -43 7 -43 18 0 39 27 31 40 -7 11 -28 13 -38
3z"/>
<path d="M3036 4665 c-8 -22 4 -45 24 -45 22 0 34 28 19 46 -15 18 -35 18 -43
-1z m34 -15 c0 -5 -4 -10 -10 -10 -5 0 -10 5 -10 10 0 6 5 10 10 10 6 0 10 -4
10 -10z"/>
<path d="M3117 4633 c-12 -11 -8 -23 8 -23 8 0 15 7 15 15 0 16 -12 20 -23 8z"/>
<path d="M3165 4580 c-3 -5 -2 -10 4 -10 5 0 13 5 16 10 3 6 2 10 -4 10 -5 0
-13 -4 -16 -10z"/>
<path d="M3050 4540 c0 -13 7 -20 20 -20 13 0 20 7 20 20 0 13 -7 20 -20 20
-13 0 -20 -7 -20 -20z"/>
<path d="M3220 4550 c0 -5 5 -10 10 -10 6 0 10 5 10 10 0 6 -4 10 -10 10 -5 0
-10 -4 -10 -10z"/>
<path d="M3150 4525 c0 -22 4 -26 23 -23 14 2 22 10 22 23 0 13 -8 21 -22 23
-19 3 -23 -1 -23 -23z m35 5 c3 -5 -1 -10 -10 -10 -9 0 -13 5 -10 10 3 6 8 10
10 10 2 0 7 -4 10 -10z"/>
<path d="M3924 4311 c-39 -20 -99 -61 -133 -91 l-63 -55 33 -13 c23 -10 34
-11 37 -3 2 6 17 11 33 11 22 0 27 -4 22 -16 -4 -11 -9 -12 -16 -5 -13 13 -27
14 -27 3 0 -19 66 -44 105 -40 38 3 41 6 82 78 43 76 52 115 33 151 -14 25
-22 23 -106 -20z"/>
<path d="M2818 4304 c-4 -3 -2 -19 4 -35 8 -24 16 -29 41 -29 l32 1 -24 13
c-13 7 -29 23 -35 35 -7 12 -15 19 -18 15z"/>
<path d="M3497 4259 c-20 -17 -37 -35 -37 -40 0 -6 4 -8 9 -5 21 13 40 -8 47
-51 5 -36 3 -48 -11 -61 -13 -13 -19 -14 -22 -4 -3 6 -9 12 -14 12 -14 0 -11
-21 6 -40 8 -9 18 -31 21 -48 l7 -32 -52 0 c-35 0 -50 4 -46 11 4 6 4 30 0 54
l-6 44 -47 -4 c-26 -2 -59 -4 -74 -5 -27 0 -28 -2 -28 -51 0 -75 29 -177 53
-183 21 -5 301 49 470 91 73 18 107 31 107 41 0 9 -6 12 -15 8 -13 -5 -14 -2
-5 15 17 31 8 40 -23 24 l-28 -14 21 30 22 29 -38 16 c-26 11 -39 13 -42 5 -5
-14 -42 -14 -42 0 0 7 -9 9 -21 6 -60 -16 -64 31 -9 88 54 54 52 65 -13 65
-40 0 -126 17 -152 30 0 0 -17 -14 -38 -31z m342 -185 c10 -9 -35 -3 -49 6
-11 8 -7 9 15 4 17 -4 32 -8 34 -10z"/>
<path d="M3152 4188 c-16 -16 -15 -38 2 -38 17 0 30 30 18 42 -4 4 -13 3 -20
-4z"/>
<path d="M3232 4169 c3 -10 27 -15 89 -16 102 -3 89 12 -20 23 -61 6 -73 4
-69 -7z"/>
<path d="M3463 4173 c-7 -2 -13 -17 -12 -31 l1 -27 8 25 c4 14 8 19 9 13 1 -7
10 -13 22 -13 14 0 19 5 17 17 -3 18 -24 26 -45 16z"/>
<path d="M3315 4123 l-50 -13 50 6 c28 3 52 8 54 10 11 10 -8 9 -54 -3z"/>
<path d="M2320 4016 c-16 -30 -5 -49 26 -43 15 3 24 0 24 -9 0 -7 28 -19 69
-28 100 -23 113 -20 56 13 -44 25 -51 27 -57 12 -5 -13 -7 -12 -7 5 -1 14 -16
29 -49 47 l-49 27 -13 -24z"/>
<path d="M3966 4024 c-20 -19 -20 -25 -2 -18 8 3 17 12 20 20 7 18 1 18 -18
-2z"/>
<path d="M3910 4010 c0 -11 4 -20 9 -20 5 0 11 9 14 20 3 13 0 20 -9 20 -8 0
-14 -9 -14 -20z"/>
<path d="M2307 3953 c-3 -3 -1 -15 4 -27 7 -14 35 -31 81 -49 72 -28 111 -30
45 -2 -19 8 -43 25 -54 37 -19 24 -67 50 -76 41z"/>
<path d="M3790 3931 c-177 -48 -237 -63 -269 -67 -20 -2 -79 -14 -131 -25 -52
-11 -147 -23 -210 -25 -147 -6 -156 -10 -101 -38 52 -27 79 -26 256 9 66 13
136 27 155 30 19 3 85 19 146 34 61 15 125 27 142 27 18 -1 32 2 32 7 0 4 7 7
15 7 8 0 21 14 30 30 9 17 12 30 8 29 -5 0 -37 -9 -73 -18z"/>
<path d="M2400 3917 c0 -10 69 -45 101 -52 19 -4 68 -18 109 -31 41 -12 86
-25 100 -28 14 -3 62 -14 106 -25 100 -25 236 -42 247 -32 15 15 -107 59 -183
66 -41 3 -113 19 -160 34 -47 16 -125 36 -175 45 -49 9 -102 19 -117 22 -16 3
-28 3 -28 1z"/>
<path d="M3675 3841 c-49 -15 -97 -30 -105 -34 -17 -7 28 -3 50 5 8 3 48 15
88 27 39 12 72 24 72 27 0 7 -10 4 -105 -25z"/>
<path d="M2370 3851 c0 -5 18 -18 39 -29 31 -16 40 -18 44 -8 4 10 -1 12 -16
9 -16 -3 -18 -2 -9 5 11 7 6 12 -19 21 -39 13 -39 13 -39 2z"/>
<path d="M3651 3795 c-91 -29 -186 -53 -341 -84 -43 -9 -41 -9 30 -9 139 0
294 39 384 97 61 38 57 38 -73 -4z"/>
<path d="M2578 3786 c35 -12 60 -25 55 -30 -4 -5 -3 -6 4 -2 7 4 37 0 67 -9
33 -10 81 -15 123 -13 l68 3 -60 12 c-33 7 -103 24 -155 38 -52 14 -111 25
-130 24 -32 -1 -30 -2 28 -23z"/>
<path d="M3470 3785 c-41 -13 -69 -24 -62 -24 25 -2 142 32 142 40 0 5 -1 9
-2 8 -2 -1 -37 -12 -78 -24z"/>
<path d="M3848 3797 c-7 -8 -21 -12 -32 -9 -14 4 -17 2 -11 -8 6 -10 4 -12 -7
-7 -9 3 -19 3 -23 -1 -4 -4 -10 -7 -13 -8 -4 -1 -35 -14 -70 -29 -74 -33 -69
-50 11 -37 59 9 167 73 167 99 0 17 -6 17 -22 0z"/>
<path d="M3368 3753 c7 -3 16 -2 19 1 4 3 -2 6 -13 5 -11 0 -14 -3 -6 -6z"/>
<path d="M2245 3710 c3 -5 13 -10 21 -10 8 0 12 5 9 10 -3 6 -13 10 -21 10 -8
0 -12 -4 -9 -10z"/>
<path d="M3008 3693 c18 -2 45 -2 60 0 15 2 0 4 -33 4 -33 0 -45 -2 -27 -4z"/>
<path d="M2210 3681 c0 -22 77 -45 155 -47 l80 -2 -53 25 c-53 25 -182 42
-182 24z"/>
<path d="M3504 3648 l-39 -18 70 5 c39 2 90 10 115 18 l45 15 -76 -2 c-49 -1
-91 -7 -115 -18z"/>
<path d="M3238 3643 c7 -3 16 -2 19 1 4 3 -2 6 -13 5 -11 0 -14 -3 -6 -6z"/>
<path d="M3337 3638 c15 -7 30 -7 50 0 26 10 24 10 -22 11 -42 0 -46 -2 -28
-11z"/>
<path d="M2415 3551 c39 -21 72 -36 75 -34 2 2 0 7 -5 11 -6 4 -17 16 -25 26
-13 18 -13 19 0 11 8 -4 31 -20 50 -35 19 -15 55 -34 80 -42 25 -9 44 -19 43
-24 0 -5 27 -10 60 -11 34 -1 63 -7 65 -12 2 -5 9 -8 16 -5 8 3 16 -1 19 -9 3
-8 25 -17 49 -21 23 -4 54 -9 68 -12 20 -4 22 -3 10 5 -8 6 -26 11 -40 11 -19
0 -22 2 -11 9 10 6 27 4 50 -7 20 -9 58 -16 84 -17 55 -2 50 13 -6 17 -25 2
-37 8 -38 18 0 10 -2 11 -6 2 -2 -6 -9 -9 -15 -6 -5 3 -37 6 -71 7 -34 0 -51
2 -38 4 17 4 0 13 -65 34 -49 17 -122 48 -163 71 -65 35 -80 40 -123 36 -27
-3 -51 -1 -54 3 -3 5 -22 9 -42 9 -37 0 -37 0 33 -39z"/>
<path d="M3350 3580 c-12 -8 -10 -10 10 -11 23 0 23 -1 5 -9 -11 -5 -14 -9 -7
-9 21 -1 53 19 47 30 -8 12 -36 11 -55 -1z"/>
<path d="M3110 3570 c8 -5 24 -10 35 -10 17 0 17 2 5 10 -8 5 -24 10 -35 10
-17 0 -17 -2 -5 -10z"/>
<path d="M2700 3555 c0 -10 79 -26 145 -30 l70 -4 -95 19 c-101 20 -120 23
-120 15z"/>
<path d="M3288 3553 c7 -3 16 -2 19 1 4 3 -2 6 -13 5 -11 0 -14 -3 -6 -6z"/>
<path d="M3878 3553 c7 -3 16 -2 19 1 4 3 -2 6 -13 5 -11 0 -14 -3 -6 -6z"/>
<path d="M3798 3543 c6 -2 18 -2 25 0 6 3 1 5 -13 5 -14 0 -19 -2 -12 -5z"/>
<path d="M3349 3489 c-13 -7 51 -39 79 -39 24 0 92 28 92 38 0 9 -157 10 -171
1z m38 -5 c-3 -3 -12 -4 -19 -1 -8 3 -5 6 6 6 11 1 17 -2 13 -5z"/>
<path d="M2818 3483 c7 -3 16 -2 19 1 4 3 -2 6 -13 5 -11 0 -14 -3 -6 -6z"/>
<path d="M2730 3396 c0 -9 5 -16 10 -16 6 0 10 4 10 9 0 6 -4 13 -10 16 -5 3
-10 -1 -10 -9z"/>
<path d="M3429 3393 c27 -4 31 -7 20 -15 -10 -7 -8 -8 11 -4 14 3 39 6 55 7
27 1 26 2 -10 10 -22 4 -56 7 -75 7 l-35 -1 34 -4z"/>
<path d="M2765 3380 c3 -5 18 -10 32 -10 32 0 28 5 -10 14 -19 4 -26 3 -22 -4z"/>
<path d="M3007 3369 c7 -7 15 -10 18 -7 3 3 -2 9 -12 12 -14 6 -15 5 -6 -5z"/>
<path d="M3100 3361 c-33 -6 -34 -7 -11 -15 18 -6 21 -10 10 -17 -23 -14 6
-10 46 7 21 8 44 13 52 10 8 -3 11 -2 8 3 -3 5 3 12 12 14 28 7 -78 5 -117 -2z"/>
<path d="M3417 3358 c2 -5 -8 -8 -22 -8 -15 0 -24 -4 -20 -10 6 -10 27 -8 108
6 45 9 31 22 -22 21 -27 -1 -47 -5 -44 -9z"/>
<path d="M2895 3350 c3 -5 8 -10 11 -10 2 0 4 5 4 10 0 6 -5 10 -11 10 -5 0
-7 -4 -4 -10z"/>
<path d="M3320 3344 c0 -12 -3 -14 -12 -6 -7 6 -26 8 -43 5 -26 -5 -27 -7 -10
-14 28 -11 77 -10 95 1 13 9 13 11 0 20 -22 14 -30 12 -30 -6z"/>
<path d="M2935 3343 c11 -3 25 -8 30 -12 6 -5 21 -5 35 -1 22 6 21 7 -15 13
-45 8 -81 7 -50 0z"/>
<path d="M1417 2923 c-4 -3 -7 -23 -7 -44 0 -41 11 -49 66 -49 61 0 82 70 27
91 -28 11 -77 12 -86 2z"/>
<path d="M1410 2710 l0 -50 51 0 c62 0 89 13 89 45 0 34 -36 55 -92 55 l-48 0
0 -50z"/>
<path d="M1824 2798 c-10 -29 -20 -56 -22 -60 -2 -4 19 -8 47 -8 l51 0 -20 52
c-11 28 -23 55 -28 60 -4 4 -17 -15 -28 -44z"/>
<path d="M2880 2880 l0 -50 53 0 c63 0 93 23 83 63 -6 27 -30 37 -93 37 l-43
0 0 -50z"/>
<path d="M1940 2245 c0 -19 4 -35 10 -35 12 0 24 45 15 59 -13 22 -25 10 -25
-24z"/>
<path d="M2743 2283 c-7 -2 -13 -18 -13 -34 0 -24 4 -29 24 -29 28 0 37 16 25
48 -8 22 -14 25 -36 15z"/>
<path d="M2730 2165 c0 -14 8 -29 20 -35 17 -9 22 -7 29 12 12 32 3 48 -25 48
-19 0 -24 -5 -24 -25z"/>
<path d="M3770 2249 c0 -38 24 -35 28 4 2 19 -1 27 -12 27 -11 0 -16 -10 -16
-31z"/>
<path d="M3774 2187 c-9 -24 0 -52 16 -52 21 0 24 39 6 55 -13 10 -17 9 -22
-3z"/>
<path d="M4036 2204 c-9 -22 -8 -24 9 -24 8 0 15 6 15 14 0 22 -17 28 -24 10z"/>
<path d="M4910 2205 c0 -42 4 -75 10 -75 16 0 30 37 30 79 0 49 -8 71 -26 71
-11 0 -14 -18 -14 -75z"/>
</g>
</svg>
